<?xml version="1.0" encoding="UTF-8"?>
<!DOCTYPE svg PUBLIC "-//W3C//DTD SVG 1.1//EN" "http://www.w3.org/Graphics/SVG/1.1/DTD/svg11.dtd">
<!-- Creator: CorelDRAW -->
<svg xmlns="http://www.w3.org/2000/svg" xml:space="preserve" width="253px" height="253px" version="1.1" style="shape-rendering:geometricPrecision; text-rendering:geometricPrecision; image-rendering:optimizeQuality; fill-rule:evenodd; clip-rule:evenodd"
viewBox="0 0 98400 98400"
 xmlns:xlink="http://www.w3.org/1999/xlink"
 xmlns:xodm="http://www.corel.com/coreldraw/odm/2003">
 <defs>
  <style type="text/css">
   <![CDATA[
    .fil0 {fill:#20C4F4}
   ]]>
  </style>
 </defs>
 <g id="Слой_x0020_1">
  <metadata id="CorelCorpID_0Corel-Layer"/>
  <path class="fil0" d="M36300 31500c3700,5000 7400,9700 11100,14300 -600,700 -800,1600 -700,2600 0,300 100,500 200,800 -400,600 -700,1200 -1000,1800 1300,800 2500,1700 3800,2500 500,-700 1000,-1400 1500,-2000 200,-100 500,-200 700,-300 800,1000 1700,2000 2500,3000 500,-400 1000,-800 1400,-1200 -800,-1000 -1600,-2100 -2400,-3200 400,-600 600,-1300 500,-2000 2700,-3900 5200,-8000 7400,-12400 -1200,-800 -2500,-1600 -3700,-2400 -3100,3700 -5800,7500 -8100,11400 -100,0 -100,100 -200,100 -3700,-4700 -7500,-9400 -11600,-14100 -400,300 -900,700 -1400,1100zm-10500 -16900l1000 1400 -1100 800 -1000 -1400c-600,400 -1200,800 -1700,1300l1200 1300 -1100 900 -1200 -1300c-500,400 -1100,900 -1600,1400l1300 1300 -1000 1000 -1300 -1300c-500,500 -900,1000 -1300,1400l1400 1200 -900 1100 -1400 -1200c-500,500 -900,1100 -1300,1600l1500 1100 -900 1100 -1400 -1000c-400,500 -800,1000 -1100,1600l5700 3300 -1600 2700 -5700 -3300c-300,500 -500,1000 -700,1400l1700 800 -600 1300 -1700 -800c-300,700 -600,1300 -800,2000l1700 600 -400 1300 -1800 -600c-300,700 -500,1400 -700,2100l1800 500 -300 1300 -1800 -500c-200,700 -300,1300 -500,1900l1900 400 -300 1400 -1800 -400c-100,700 -200,1400 -300,2100l1900 100 -200 1400 -1800 -100c-100,600 -100,1200 -200,1900l6600 0 0 3100 -6600 0c100,600 100,1300 200,1900l1800 -200 200 1400 -1900 200c100,700 200,1400 300,2100l1800 -300 300 1300 -1800 400c100,700 300,1400 400,2100l1800 -500 400 1400 -1800 500c200,600 400,1200 600,1800l1800 -600 400 1300 -1700 600c200,700 500,1300 800,1900l1700 -700 600 1300 -1700 700c200,500 500,1000 700,1500l5700 -3300 1600 2700 -5700 3300c300,500 700,1100 1100,1600l1400 -1100 900 1200 -1500 1000c400,600 800,1100 1300,1700l1400 -1200 900 1100 -1400 1100c500,600 1000,1100 1500,1600l1300 -1300 1000 1000 -1300 1300c500,400 1000,900 1500,1300l1100 -1400 1100 900 -1200 1400c600,400 1100,800 1700,1200l1000 -1400 1100 800 -1000 1400c500,300 900,600 1400,900l3200 -5600 2700 1600 -3200 5600c500,300 1100,500 1700,800l700 -1600 1200 600 -700 1600c700,200 1300,500 2000,700l500 -1500 1400 400 -600 1600c700,200 1400,400 2100,600l400 -1600 1400 400 -500 1600c700,100 1300,300 1900,400l300 -1600 1400 200 -300 1600c700,100 1400,200 2100,300l100 -1600 1400 100 -200 1600c600,0 1100,100 1700,100l0 -6300 3100 0 0 6300c700,-100 1300,-100 2000,-200l-200 -1500 1400 -200 200 1600c700,-100 1300,-200 2000,-300l-300 -1500 1400 -300 300 1500c700,-100 1400,-300 2100,-500l-400 -1400 1300 -400 500 1400c600,-100 1200,-300 1800,-600l-500 -1400 1300 -500 500 1500c600,-300 1300,-600 1900,-800l-600 -1400 1200 -600 600 1400c500,-300 1000,-500 1400,-700l-3100 -5400 2800 -1600 3000 5400c600,-300 1100,-700 1600,-1000l-900 -1200 1200 -800 800 1100c600,-400 1100,-800 1600,-1200l-900 -1100 1100 -900 900 1000c500,-400 1100,-900 1600,-1400l-1000 -1000 900 -1000 1000 1000c500,-500 900,-1000 1300,-1500l-1000 -900 900 -1000 1000 900c400,-600 900,-1100 1300,-1600l-1200 -800 800 -1200 1200 800c300,-400 600,-900 900,-1300l-5300 -3100 1500 -2700 5300 3000c300,-500 600,-1000 800,-1500l-1200 -600 500 -1300 1300 600c300,-600 500,-1300 800,-1900l-1300 -500 400 -1300 1300 500c300,-700 500,-1400 700,-2100l-1300 -300 300 -1400 1300 300c200,-600 300,-1200 400,-1800l-1300 -300 300 -1300 1300 200c100,-700 200,-1300 200,-2000l-1300 -100 100 -1400 1400 100c0,-600 100,-1100 100,-1700l-6100 0 0 -3100 6100 0c0,-600 -100,-1200 -100,-1700l-1400 100 -100 -1400 1400 -100c-100,-700 -200,-1400 -300,-2000l-1400 200 -200 -1400 1300 -200c-100,-700 -300,-1400 -400,-2100l-1400 300 -300 -1300 1300 -400c-200,-600 -400,-1200 -600,-1800l-1300 500 -400 -1400 1300 -400c-300,-700 -500,-1300 -800,-1900l-1300 600 -500 -1300 1200 -600c-200,-500 -500,-1100 -800,-1600l-5300 3100 -1500 -2700 5300 -3100c-300,-500 -600,-900 -900,-1400l-1100 900 -900 -1200 1200 -800c-400,-600 -800,-1100 -1300,-1600l-1000 900 -900 -1100 1000 -900c-400,-600 -900,-1100 -1400,-1600l-1000 1000 -1000 -1000 1000 -1000c-500,-500 -900,-900 -1400,-1300l-900 1100 -1100 -900 900 -1100c-500,-500 -1000,-900 -1600,-1300l-800 1200 -1200 -800 900 -1200c-500,-400 -1000,-700 -1500,-1000l-3100 5300 -2800 -1500 3100 -5400c-500,-300 -1000,-600 -1600,-900l-600 1400 -1300 -600 600 -1400c-600,-200 -1300,-500 -1900,-800l-500 1500 -1300 -500 500 -1400c-700,-300 -1400,-500 -2100,-700l-400 1500 -1300 -300 400 -1500c-700,-200 -1300,-300 -1900,-500l-300 1600 -1400 -200 300 -1600c-700,-100 -1400,-200 -2000,-300l-200 1600 -1400 -100 200 -1600c-600,-100 -1100,-100 -1700,-100l0 6300 -3100 0 0 -6400c-500,100 -1100,100 -1600,100l100 1700 -1400 100 -100 -1700c-700,100 -1400,200 -2100,300l300 1700 -1400 200 -300 -1700c-700,200 -1400,300 -2100,500l400 1600 -1300 400 -500 -1600c-600,100 -1200,300 -1800,500l600 1600 -1400 500 -500 -1600c-700,200 -1300,500 -2000,700l800 1600 -1300 600 -700 -1600c-600,300 -1200,600 -1700,800l3200 5700 -2700 1500 -3300 -5600c-400,300 -800,600 -1300,900zm29500 10100l-3200 0c1600,-2400 2600,-3900 2900,-4700 400,-700 500,-1400 500,-2100 0,-800 -300,-1600 -900,-2100 -500,-600 -1400,-900 -2600,-900 -500,0 -1100,100 -1500,300 -400,200 -700,500 -1000,800 -300,400 -400,700 -500,1100 0,400 -100,900 -100,1600l0 400 2600 0 0 -1100c0,-500 100,-900 200,-1000 100,-200 200,-300 500,-300 200,0 300,100 400,200 200,200 200,400 200,700 0,400 -200,1000 -500,1800 -400,700 -1500,2600 -3400,5700l0 1600 6400 0 0 -2000zm-7400 -9600l-1700 0c-700,1000 -1800,1600 -3100,1900l0 1300 200 0c700,0 1100,100 1300,200 200,100 300,200 400,400 0,200 0,700 0,1600l0 6200 2900 0 0 -11600zm34200 33500c500,-300 800,-500 1000,-800 100,-300 200,-800 200,-1400 0,-1000 -200,-1700 -700,-2300 -500,-500 -1400,-800 -2800,-800 -1100,0 -1900,200 -2400,600 -500,400 -800,1100 -800,2200l0 1000 2900 0 0 -900c0,-500 0,-800 100,-900 100,-100 200,-200 400,-200 200,0 300,100 400,200 100,100 100,400 100,800l0 600c0,400 0,700 -100,900 0,100 -200,300 -300,300 -200,100 -600,100 -1300,100l0 1700c600,0 1000,0 1100,100 200,0 400,200 500,400 100,200 100,500 100,1000l0 800c0,700 0,1100 -100,1300 0,200 -200,300 -400,300 -200,0 -300,-100 -400,-200 -100,-200 -100,-500 -100,-1000l0 -1900 -2900 0 0 900c0,1100 100,1900 300,2400 100,400 500,800 1000,1100 500,300 1200,400 2100,400 900,0 1500,-100 2000,-400 500,-200 900,-600 1100,-1100 200,-500 300,-1200 300,-2100 0,-1300 -100,-2100 -300,-2400 -200,-300 -500,-600 -1000,-700zm-31600 29200c0,-400 0,-700 -100,-900 -100,-100 -300,-200 -500,-200 -200,0 -300,100 -400,200 -100,200 -200,500 -200,900l0 2100c0,500 100,800 200,1000 100,100 200,200 400,200 100,0 300,-100 400,-200 100,-100 200,-400 200,-1000l0 -2100zm2900 -3600c0,-700 -100,-1300 -300,-1800 -300,-500 -600,-900 -1200,-1100 -500,-300 -1100,-400 -2000,-400 -600,0 -1200,100 -1700,300 -500,200 -900,500 -1200,900 -300,400 -400,900 -500,1300 0,500 0,1400 0,2800l0 1600c0,1300 0,2100 0,2600 100,400 200,800 500,1200 300,400 600,800 1100,1000 500,200 1200,300 1900,300 700,0 1200,-100 1700,-300 500,-200 800,-400 1100,-800 300,-300 400,-700 500,-1100 100,-400 100,-1000 100,-1800l0 -900c0,-700 -100,-1200 -200,-1600 -100,-400 -300,-800 -800,-1000 -400,-300 -800,-500 -1400,-500 -400,0 -700,100 -1000,300 -300,100 -500,300 -700,700l0 -1900c0,-400 0,-700 100,-900 0,-100 0,-200 100,-300 100,-100 200,-100 400,-100 200,0 300,0 400,100 100,100 200,200 200,400 0,100 0,400 0,1000l2900 0zm-34900 -25700c0,500 100,800 200,900 100,200 300,200 400,200 200,0 400,-100 400,-200 100,-100 200,-400 200,-800l0 -2100c0,-600 -100,-900 -100,-1000 -100,-200 -300,-300 -500,-300 -100,0 -200,100 -400,200 -100,100 -200,400 -200,1000l0 2100zm-2900 3700c0,700 100,1300 400,1800 200,400 600,800 1100,1100 500,200 1200,400 2000,400 600,0 1200,-100 1700,-400 500,-200 900,-500 1200,-900 300,-400 500,-800 500,-1300 0,-500 100,-1400 100,-2800l0 -1600c0,-1200 -100,-2100 -100,-2500 0,-500 -200,-900 -500,-1300 -200,-400 -600,-700 -1100,-900 -500,-300 -1100,-400 -1900,-400 -600,0 -1200,100 -1700,300 -400,200 -800,500 -1100,800 -200,300 -400,700 -500,1100 0,400 -100,1000 -100,1800l0 900c0,700 100,1200 200,1700 100,300 400,700 800,1000 400,300 800,400 1400,400 400,0 800,-100 1000,-200 300,-200 500,-400 700,-700l0 1800c0,500 0,700 0,900 0,100 -100,200 -200,300 -100,100 -200,200 -400,200 -100,0 -300,-100 -400,-200 -100,-100 -100,-200 -200,-300 0,-200 0,-500 0,-1000l-2900 0zm9500 -19200c0,-300 0,-400 -100,-500 0,-100 -100,-100 -200,-100 -100,0 -100,0 -200,100 0,100 0,300 0,500l0 2800c0,300 0,500 0,600 100,0 100,100 200,100 100,0 200,-100 200,-100 100,-100 100,-300 100,-600l0 -2800zm1400 500c0,-400 0,-700 -100,-900 0,-200 -100,-400 -200,-500 -100,-200 -300,-300 -600,-400 -200,-100 -500,-200 -800,-200 -400,0 -700,100 -1000,200 -200,200 -400,400 -500,700 -100,200 -100,600 -100,1100l0 2000c0,400 0,700 100,800 0,200 100,400 200,600 200,100 400,200 600,300 200,100 500,100 800,100 300,0 500,0 700,-100 200,0 400,-200 500,-300 200,-200 300,-400 300,-600 100,-200 100,-500 100,-900l0 -1900zm-3900 -1900l-800 0c-300,500 -900,800 -1500,900l0 700 100 0c300,0 500,0 600,0 100,100 200,100 200,200 0,100 0,400 0,800l0 3000 1400 0 0 -5600zm13300 -11500l-800 0c-400,500 -900,800 -1600,900l0 700 200 0c300,0 500,0 600,100 100,0 200,100 200,200 0,0 0,300 0,700l0 3100 1400 0 0 -5700zm-2700 0l-800 0c-400,500 -900,800 -1600,900l0 700 200 0c300,0 500,0 600,100 100,0 200,100 200,200 0,0 0,300 0,700l0 3100 1400 0 0 -5700zm33400 200l-800 0c-400,400 -900,700 -1600,800l0 700 200 0c300,0 500,0 600,100 100,0 200,100 200,200 0,100 0,300 0,800l0 3000 1400 0 0 -5600zm11700 15100l-1600 0c800,-1100 1300,-1900 1500,-2300 100,-300 200,-700 200,-1000 0,-400 -100,-700 -400,-1000 -300,-300 -700,-400 -1300,-400 -300,0 -500,0 -700,100 -200,100 -400,200 -500,400 -100,200 -200,400 -300,500 0,200 0,500 0,800l0 200 1200 0 0 -600c0,-200 100,-400 100,-400 100,-100 200,-200 300,-200 100,0 100,100 200,100 0,100 100,200 100,400 0,200 -100,500 -300,800 -200,400 -700,1300 -1600,2800l0 800 3100 0 0 -1000zm-1700 30200l0 -2400 -600 2400 600 0zm1400 -3700l-1900 0 -1200 3700 0 1000 1700 0 0 900 1400 0 0 -900 400 0 0 -1000 -400 0 0 -3700zm-9800 10700l-3000 0 -100 2800 1400 0c0,-100 0,-200 0,-300 0,0 100,-100 100,-100 100,0 100,-100 200,-100 100,0 200,100 200,200 0,0 100,200 100,400l0 1100c0,400 0,600 0,700 -100,0 -100,100 -100,100 -100,0 -100,100 -200,100 -100,0 -200,-100 -300,-300 0,-100 0,-400 0,-700l0 -400 -1400 0 0 300c0,500 100,900 200,1200 100,200 300,400 600,500 200,200 600,200 900,200 300,0 600,0 800,-100 300,-100 400,-200 600,-400 100,-100 200,-300 200,-500 0,-200 100,-500 100,-800l0 -800c0,-700 -100,-1100 -300,-1300 -200,-200 -500,-300 -900,-300 -300,0 -600,100 -900,400l100 -1000 1700 0 0 -900zm-33400 1000l-2700 0 0 1000 1400 0 -1000 4600 1400 0 900 -4400 0 -1200zm-11500 -7600c0,-200 0,-300 -100,-400 0,-100 -100,-100 -200,-100 -100,0 -100,0 -200,100 0,100 0,200 0,400l0 800c0,200 0,400 0,400 100,100 100,100 200,100 100,0 200,0 200,-100 100,0 100,-200 100,-400l0 -800zm0 -2300c0,-200 -100,-300 -100,-400 0,0 -100,-100 -200,-100 -100,0 -100,100 -200,100 0,100 0,200 0,400l0 400c0,200 0,300 0,400 100,100 100,100 200,100 100,0 200,0 200,-100 0,-100 100,-200 100,-400l0 -400zm800 1200c200,-100 300,-200 400,-400 100,-100 100,-300 100,-600 0,-500 -100,-900 -300,-1100 -200,-300 -700,-400 -1300,-400 -500,0 -900,100 -1200,300 -300,300 -400,600 -400,1100 0,300 0,500 100,700 100,200 300,300 400,400 -300,200 -400,400 -500,600 0,300 0,600 0,900 0,500 0,900 100,1100 100,200 300,400 500,500 300,100 600,200 1000,200 500,0 800,-100 1000,-200 300,-100 500,-300 600,-500 0,-200 100,-600 100,-1000 0,-600 -100,-1000 -200,-1200 -100,-200 -200,-300 -400,-400zm25100 -64900c13600,0 25900,5500 34800,14400 8900,8900 14400,21200 14400,34800 0,13600 -5500,25900 -14400,34800 -8900,8900 -21200,14400 -34800,14400 -13600,0 -25900,-5500 -34800,-14400 -8900,-8900 -14400,-21200 -14400,-34800 0,-13600 5500,-25900 14400,-34800 8900,-8900 21200,-14400 34800,-14400z"/>
 </g>
</svg>
