<?xml version="1.0" encoding="UTF-8"?>
<!DOCTYPE svg PUBLIC "-//W3C//DTD SVG 1.1//EN" "http://www.w3.org/Graphics/SVG/1.1/DTD/svg11.dtd">
<!-- Creator: CorelDRAW -->
<svg xmlns="http://www.w3.org/2000/svg" xml:space="preserve" width="200px" height="275px" version="1.1" style="shape-rendering:geometricPrecision; text-rendering:geometricPrecision; image-rendering:optimizeQuality; fill-rule:evenodd; clip-rule:evenodd"
viewBox="0 0 87600 120200"
 xmlns:xlink="http://www.w3.org/1999/xlink"
 xmlns:xodm="http://www.corel.com/coreldraw/odm/2003">
 <defs>
  <style type="text/css">
   <![CDATA[
    .fil0 {fill:#20C4F4}
   ]]>
  </style>
 </defs>
 <g id="Слой_x0020_1">
  <metadata id="CorelCorpID_0Corel-Layer"/>
  <path class="fil0" d="M23200 51000l11400 -11100 7100 7600 -11400 11400 -7100 -7900zm3600 58300l15700 0c1800,2100 4500,3400 7500,3400 3000,0 5700,-1300 7500,-3400l14100 0 8000 10900 -59500 0 6700 -10900zm-16800 -40500l22500 0 0 4300 -22500 0 0 -4300zm-10000 11900l42400 0 0 6100 -19600 0c6200,5700 12300,9300 18000,11200 -600,1400 -1000,2900 -1000,4500 0,700 100,1400 200,2100 -8500,-2500 -17500,-8100 -26400,-17800l-13600 0 0 -6100zm59400 17800c4700,-1500 8800,-4200 12200,-7700 3700,-3700 6400,-8400 8000,-13500 3300,-10800 1200,-23600 -9000,-33200 1700,-1500 2900,-3500 3400,-5700 13200,11600 15900,27400 11800,40800 -1900,6100 -5200,11600 -9500,16100 -4400,4500 -9900,8000 -16100,9700 -100,0 -200,100 -400,100 300,-800 400,-1700 400,-2600 0,-1500 -300,-2800 -800,-4000zm-9400 -3100c3900,0 7100,3100 7100,7100 0,3900 -3200,7100 -7100,7100 -3900,0 -7100,-3200 -7100,-7100 0,-4000 3200,-7100 7100,-7100zm0 4500c1400,0 2600,1100 2600,2600 0,1400 -1200,2600 -2600,2600 -1400,0 -2600,-1200 -2600,-2600 0,-1500 1200,-2600 2600,-2600zm14000 -70700c3900,0 7100,3200 7100,7200 0,3900 -3200,7100 -7100,7100 -3900,0 -7100,-3200 -7100,-7100 0,-4000 3200,-7200 7100,-7200zm0 4500c1400,0 2600,1200 2600,2700 0,1400 -1200,2600 -2600,2600 -1500,0 -2600,-1200 -2600,-2600 0,-1500 1100,-2700 2600,-2700zm5200 -25800l8000 -7900 5000 5300 -8000 8100 -5000 -5500zm-34800 25800l13500 13800 6900 -6800c-700,-1300 -1000,-2800 -1000,-4300 0,-5700 4600,-10200 10200,-10200 1600,0 3100,300 4500,1000l7100 -7000 -13800 -13500 -27400 27000z"/>
 </g>
</svg>
