<?xml version="1.0" encoding="UTF-8"?>
<!DOCTYPE svg PUBLIC "-//W3C//DTD SVG 1.1//EN" "http://www.w3.org/Graphics/SVG/1.1/DTD/svg11.dtd">
<!-- Creator: CorelDRAW -->
<svg xmlns="http://www.w3.org/2000/svg" xml:space="preserve" width="277px" height="279px" version="1.1" style="shape-rendering:geometricPrecision; text-rendering:geometricPrecision; image-rendering:optimizeQuality; fill-rule:evenodd; clip-rule:evenodd"
viewBox="0 0 118300 119000"
 xmlns:xlink="http://www.w3.org/1999/xlink"
 xmlns:xodm="http://www.corel.com/coreldraw/odm/2003">
 <defs>
  <style type="text/css">
   <![CDATA[
    .fil0 {fill:#20C4F4}
   ]]>
  </style>
 </defs>
 <g id="Слой_x0020_1">
  <metadata id="CorelCorpID_0Corel-Layer"/>
  <path class="fil0" d="M118300 91700l-24800 24900 -25600 -25500c-300,1400 -900,2600 -1800,3500 -100,100 -200,200 -300,200l0 0c-100,100 -200,200 -300,300l0 0c-200,100 -400,300 -500,400l-100 0c-100,0 -100,100 -200,200l-100 0c-100,0 -200,100 -300,100l0 0c-100,100 -200,100 -300,200l0 0c-100,0 -200,100 -300,100l-100 0c-100,100 -100,100 -200,100l-100 100c-100,0 -200,0 -300,0l-100 100c-100,0 -200,0 -200,0 -100,100 -100,100 -200,100 -100,0 -100,0 -200,0 -100,0 -100,100 -200,100 -100,0 -100,0 -200,0 -100,0 -100,0 -200,0 0,0 -100,0 -200,100 0,0 -100,0 -200,0l-200 0c0,0 -100,0 -200,0l-100 0c-200,0 -300,0 -400,0l-100 0c-100,0 -200,0 -300,0l0 0c-6300,0 -15300,-4400 -23500,-12100l-5700 5800c400,1400 0,3000 -1100,4100 -1600,1700 -4300,1700 -5900,0 -1700,-1600 -1700,-4300 0,-5900 1100,-1100 2700,-1500 4100,-1100l5800 -5800c-7600,-8100 -12000,-17000 -12100,-23300l0 0c0,-700 100,-1300 200,-1900l0 -100c0,-100 0,-200 100,-300l0 -100c0,-100 0,-100 0,-200 100,-100 100,-100 100,-200 0,-100 0,-100 0,-200 100,0 100,-100 100,-200l0 -100c100,-100 100,-200 100,-300l100 -100c0,0 0,-100 100,-200l0 -100c0,-100 100,-200 100,-200l100 -100c0,-100 100,-200 100,-300l0 0c100,-100 100,-200 200,-300l0 0c100,-100 100,-200 200,-300l0 0c100,-100 100,-200 200,-300l0 0c100,-100 200,-100 200,-200l0 0c100,-100 200,-200 300,-300 900,-900 2100,-1500 3500,-1900l-25700 -25600 24800 -24900 33800 33700 5900 -5900 24500 24400 -5900 5900 33600 33600zm-106200 -23300c400,-300 1000,-200 1300,200 300,400 200,1000 -200,1300l0 0c-500,400 -900,700 -1300,1000 -400,400 -800,700 -1200,1100 -2000,1900 -3700,4100 -5100,6500l0 0c-1100,1800 -1900,3600 -2500,5500 -600,1900 -1000,3800 -1100,5700 -1000,9700 3400,19300 12000,24300l100 0c5900,3500 12800,4000 19100,2100 6400,-1900 12100,-6200 15800,-12600l0 0c200,-400 800,-600 1200,-300 500,200 600,800 400,1200l0 100c-4000,6700 -10100,11400 -16800,13400 -6800,2000 -14200,1400 -20700,-2300l0 0c-9300,-5300 -14000,-15700 -13000,-26100 200,-2100 600,-4100 1300,-6100 600,-2000 1500,-3900 2600,-5800l0 0 0 0c1400,-2600 3300,-5000 5500,-7000 400,-400 800,-700 1200,-1100 500,-400 1000,-700 1400,-1100l0 0zm4200 8200c400,-300 1000,-200 1300,200 300,400 200,1000 -200,1300l0 0c-300,200 -500,400 -800,600 -300,200 -500,400 -800,700 -1200,1100 -2300,2500 -3100,4000l0 0c-700,1100 -1200,2300 -1500,3500 -400,1200 -600,2400 -700,3600 -500,6200 2400,12300 8000,15600 0,0 100,100 300,200l0 0c3800,2100 8000,2500 11900,1400 3900,-1100 7400,-3700 9700,-7500 0,-100 100,-200 100,-300 300,-400 900,-600 1300,-300 400,200 600,800 300,1200 0,100 -100,200 -100,400 -2600,4200 -6500,7100 -10800,8300 -4300,1200 -9100,800 -13300,-1600 0,0 0,0 0,0 -100,0 -200,-100 -300,-200 -6200,-3600 -9500,-10500 -8900,-17400 100,-1300 300,-2600 700,-3900 400,-1400 1000,-2600 1700,-3900l0 0c900,-1700 2100,-3200 3500,-4500 300,-200 500,-500 800,-700 300,-300 600,-500 900,-700l0 0zm4600 5400c400,-300 1000,-200 1300,200 300,400 200,1000 -200,1300l0 0c-200,200 -300,300 -500,400 -100,100 -200,200 -400,400 -700,700 -1400,1500 -1900,2400l0 0c-1300,2300 -1600,4900 -1100,7200 600,2300 2000,4400 4200,5600l0 0 0 0c600,400 1200,700 1800,900 700,100 1300,200 2000,300 3400,200 6900,-1700 8800,-5000 300,-400 900,-600 1300,-300 400,200 600,800 300,1200 -2200,4000 -6400,6100 -10500,5900 -800,0 -1600,-200 -2400,-400 -800,-200 -1500,-500 -2300,-1000l0 0c-2600,-1500 -4300,-4000 -5000,-6800 -600,-2700 -200,-5800 1300,-8600l0 0 0 0c600,-1000 1400,-1900 2200,-2800 200,-100 400,-300 600,-400 200,-200 400,-300 500,-400l0 -100zm47000 3700c-400,-2400 -1400,-5100 -2800,-8000l16900 -16900 6200 6200 -19500 19500 -800 -800zm-27300 -32400c-2800,-1400 -5500,-2300 -8000,-2800l-800 -800 19500 -19500 6200 6200 -16900 16900zm4500 22700l-5900 5900c7400,6900 15100,11200 20200,11300 -1800,-6300 -6400,-13900 -13400,-20800 -6900,-6900 -14500,-11600 -20800,-13300 100,5000 4300,12700 11200,20000l5900 -6000 2800 2900zm-18500 -70500l-19500 19500 8900 8900 19500 -19500 -8900 -8900zm11700 11700l-19500 19500 10500 10500 19500 -19500 -10500 -10500zm74600 74500l-19400 19500 -8900 -8900 19400 -19500 8900 8900zm-11700 -11700l-19500 19500 -10400 -10400 19400 -19500 10500 10400z"/>
 </g>
</svg>
