<?xml version="1.0" encoding="UTF-8"?>
<!DOCTYPE svg PUBLIC "-//W3C//DTD SVG 1.1//EN" "http://www.w3.org/Graphics/SVG/1.1/DTD/svg11.dtd">
<!-- Creator: CorelDRAW -->
<svg xmlns="http://www.w3.org/2000/svg" xml:space="preserve" width="222px" height="219px" version="1.1" style="shape-rendering:geometricPrecision; text-rendering:geometricPrecision; image-rendering:optimizeQuality; fill-rule:evenodd; clip-rule:evenodd"
viewBox="0 0 107400 105600"
 xmlns:xlink="http://www.w3.org/1999/xlink"
 xmlns:xodm="http://www.corel.com/coreldraw/odm/2003">
 <defs>
  <style type="text/css">
   <![CDATA[
    .fil0 {fill:#20C4F4}
   ]]>
  </style>
 </defs>
 <g id="Слой_x0020_1">
  <metadata id="CorelCorpID_0Corel-Layer"/>
  <path class="fil0" d="M37000 59700c-2800,-2700 -4500,-6500 -4500,-10600l0 -15800c0,-3000 900,-5800 2400,-8100 -700,-200 -1400,-300 -2100,-300l-11400 0c-5100,0 -9300,4200 -9300,9300l0 14600c0,3500 2000,6600 5000,8200l0 28500 7500 0 2800 -18100 2700 18100 6900 0 0 -25800zm27400 -1600c3200,-1700 5500,-5100 5500,-9000l0 -15800c0,-5600 -4600,-10100 -10100,-10100l-12400 0c-5600,0 -10100,4500 -10100,10100l0 15800c0,3900 2200,7300 5400,9000l0 31000 8200 0 3000 -19600 3000 19600 7500 0 0 -31000zm-10500 -58100c5800,0 10600,4800 10600,10600 0,5900 -4800,10600 -10600,10600 -5900,0 -10700,-4700 -10700,-10600 0,-5800 4800,-10600 10700,-10600l0 0zm16400 59700l0 25800 6800 0 2800 -18100 2700 18100 7500 0 0 -28500c3000,-1600 5100,-4700 5100,-8200l0 -14600c0,-5100 -4200,-9300 -9300,-9300l-11400 0c-800,0 -1500,100 -2200,300 1600,2300 2500,5100 2500,8100l0 15800c0,4100 -1700,7900 -4500,10600zm9600 -56100c-5400,0 -9700,4400 -9700,9800 0,5400 4300,9700 9700,9700 5400,0 9800,-4300 9800,-9700 0,-5400 -4400,-9800 -9800,-9800zm-52600 0c5400,0 9800,4400 9800,9800 0,5400 -4400,9700 -9800,9700 -5400,0 -9700,-4300 -9700,-9700 0,-5400 4300,-9800 9700,-9800l0 0zm68700 75300c7100,2800 11400,6300 11400,10200 0,9100 -24000,16500 -53700,16500 -29700,0 -53700,-7400 -53700,-16500 0,-3900 4300,-7400 11400,-10200 -1700,1100 -2700,2400 -2700,3800 0,6200 20200,11200 45000,11200 24800,0 44900,-5000 44900,-11200 0,-1400 -900,-2700 -2600,-3800l0 0z"/>
 </g>
</svg>
