<?xml version="1.0" encoding="UTF-8"?>
<!DOCTYPE svg PUBLIC "-//W3C//DTD SVG 1.1//EN" "http://www.w3.org/Graphics/SVG/1.1/DTD/svg11.dtd">
<!-- Creator: CorelDRAW -->
<svg xmlns="http://www.w3.org/2000/svg" xml:space="preserve" width="164px" height="246px" version="1.1" style="shape-rendering:geometricPrecision; text-rendering:geometricPrecision; image-rendering:optimizeQuality; fill-rule:evenodd; clip-rule:evenodd"
viewBox="0 0 26400 39700"
 xmlns:xlink="http://www.w3.org/1999/xlink"
 xmlns:xodm="http://www.corel.com/coreldraw/odm/2003">
 <defs>
  <style type="text/css">
   <![CDATA[
    .fil0 {fill:#20C4F4}
   ]]>
  </style>
 </defs>
 <g id="Слой_x0020_1">
  <metadata id="CorelCorpID_0Corel-Layer"/>
  <path class="fil0" d="M7400 0c2600,0 4700,2100 4700,4700 0,2600 -2100,4800 -4700,4800 -2600,0 -4700,-2200 -4700,-4800 0,-2600 2100,-4700 4700,-4700l0 0zm17200 29700c1000,-600 1800,-1700 1800,-2900l0 -5200c0,-1700 -1500,-3200 -3300,-3200l-4000 0c-1800,0 -3300,1500 -3300,3200l0 5200c0,1200 800,2300 1800,2900l0 10000 2600 0 1000 -6400 1000 6400 2400 0 0 -10000zm-3400 -18800c1900,0 3400,1500 3400,3400 0,1900 -1500,3500 -3400,3500 -1900,0 -3400,-1600 -3400,-3500 0,-1900 1500,-3400 3400,-3400l0 0zm-9100 15000c1400,-800 2400,-2300 2400,-4000l0 -7100c0,-2500 -2000,-4500 -4500,-4500l-5500 0c-2500,0 -4500,2000 -4500,4500l0 7100c0,1700 1000,3200 2400,4000l0 13800 3700 0 1300 -8800 1300 8800 3400 0 0 -13800z"/>
 </g>
</svg>
