<?xml version="1.0" encoding="UTF-8"?>
<!DOCTYPE svg PUBLIC "-//W3C//DTD SVG 1.1//EN" "http://www.w3.org/Graphics/SVG/1.1/DTD/svg11.dtd">
<!-- Creator: CorelDRAW X7 -->
<svg xmlns="http://www.w3.org/2000/svg" xml:space="preserve" width="153.768mm" height="20.8907mm" version="1.1" style="shape-rendering:geometricPrecision; text-rendering:geometricPrecision; image-rendering:optimizeQuality; fill-rule:evenodd; clip-rule:evenodd"
viewBox="0 0 16366 2223"
 xmlns:xlink="http://www.w3.org/1999/xlink"
 xmlns:xodm="http://www.corel.com/coreldraw/odm/2003">
 <defs>
  <style type="text/css">
   <![CDATA[
    .fil0 {fill:#00C8FF}
    .fil1 {fill:#E31E24}
    .fil2 {fill:#FEFEFE;fill-rule:nonzero}
   ]]>
  </style>
 </defs>
 <g id="Слой_x0020_1">
  <metadata id="CorelCorpID_0Corel-Layer"/>
  <g id="_2551990206096">
   <g id="_105553213742592">
    <path class="fil0" d="M3057 4l-915 0c-244,0 -443,199 -443,443l0 98c0,244 199,443 443,443l915 0c243,0 443,-199 443,-443l0 -98c0,-244 -200,-443 -443,-443zm13309 111c0,-61 -50,-111 -111,-111l-1534 0c82,46 143,127 161,223l501 0 0 650c0,61 50,111 111,111 61,0 111,-50 111,-111l0 -650 650 0c61,0 111,-50 111,-112zm-3200 873c61,0 111,-50 111,-111l0 -47 0 -171c0,-29 23,-52 51,-52l171 0 324 0c344,67 549,184 812,364 17,11 38,17 60,17 61,0 111,-50 111,-111 0,-38 -19,-72 -48,-92l0 0c-1,-1 -2,-2 -4,-2 -97,-65 -187,-119 -306,-176l55 0c165,0 301,-135 301,-301l0 0c0,-166 -136,-302 -301,-302l-560 0 -769 0 -375 0c95,49 172,127 219,223l925 0 560 0c43,0 79,35 79,79l0 0c0,43 -36,79 -79,79l-224 0 -370 0 -85 0 -547 0c-122,0 -222,100 -222,222l0 270c0,61 50,111 111,111l0 0zm-8616 -603l-85 0 -370 0 -223 0c-44,0 -79,-36 -79,-79l0 0c0,-44 35,-79 79,-79l560 0 973 0 0 -23c0,-94 32,-160 78,-200l-282 0 -769 0 -560 0c-166,0 -302,136 -302,302l0 0c0,166 136,301 302,301l223 0 370 0 85 0 280 0 280 0c43,0 79,36 79,79l0 0c0,44 -36,80 -79,80l-224 0 -1333 0c-46,94 -122,173 -215,222l443 0 1105 0 224 0c165,0 301,-136 301,-302l0 0c0,-165 -136,-301 -301,-301l-280 0 -280 0 0 0zm932 -158c0,-244 228,-284 338,-154l591 675 591 -675c110,-130 338,-90 338,154l0 650c0,61 -50,111 -111,111 -61,0 -111,-50 -111,-111l0 -598 -576 658c-22,25 -77,50 -127,51 -57,1 -111,-25 -136,-53l-575 -656 0 598c0,61 -50,111 -111,111 -61,0 -111,-50 -111,-111l0 -650 0 0zm-4530 836l789 0 7646 0 0 -948c0,-61 50,-111 111,-111l34 0 64 0 1031 0c243,0 443,199 443,443l0 98c0,244 -200,443 -443,443l-1031 0 0 75 0 86 0 25c0,61 -50,111 -111,111l-8127 0 -406 0 -509 0c-244,0 -443,-199 -443,-443l0 -395c0,-243 199,-443 443,-443l1421 0 6 0c-95,49 -172,127 -219,223l-962 0 -242 0c-124,0 -225,101 -225,224l0 387c0,124 101,225 225,225l242 0 263 0zm8644 -836l0 539 1027 0c123,0 224,-102 224,-225l0 -90c0,-123 -101,-224 -224,-224l-1027 0zm2932 -223l-914 0c-244,0 -443,199 -443,443l0 98c0,244 199,443 443,443l914 0c244,0 443,-199 443,-443l0 -98c0,-244 -199,-443 -443,-443zm-4 223l-906 0c-124,0 -225,101 -225,224l0 90c0,123 101,225 225,225l906 0c124,0 225,-102 225,-225l0 -90c0,-123 -101,-224 -225,-224zm-3697 -223l-915 0c-244,0 -443,199 -443,443l0 98c0,244 199,443 443,443l915 0c243,0 442,-199 442,-443l0 -98c0,-244 -199,-443 -442,-443zm-4 223l-907 0c-123,0 -225,101 -225,224l0 90c0,123 102,225 225,225l907 0c123,0 224,-102 224,-225l0 -90c0,-123 -101,-224 -224,-224zm-5770 0l-907 0c-123,0 -224,101 -224,224l0 90c0,123 101,225 224,225l907 0c123,0 224,-102 224,-225l0 -90c0,-123 -101,-224 -224,-224z"/>
    <path class="fil1" d="M9812 385l714 0c61,0 111,50 111,111l0 0c0,61 -50,111 -111,111l-714 0 0 -222z"/>
    <path class="fil1" d="M10250 1436l176 0 582 0c41,0 74,33 74,74l0 0c0,40 -33,73 -74,73l-582 0 -176 0 -133 0c-28,0 -52,23 -52,52l0 0c0,29 24,52 52,52l148 0 243 0 57 0 184 0 185 0c109,0 199,90 199,199l0 0c0,109 -90,199 -199,199l-147 0 -12 0 -13 0 -746 0c-40,0 -73,-33 -73,-73l0 0c0,-41 33,-74 73,-74l746 0 13 0 12 0 147 0c28,0 52,-23 52,-52l0 0c0,-29 -24,-52 -52,-52l-185 0 -184 0 -57 0 -243 0 -148 0c-109,0 -199,-90 -199,-199l0 0c0,-109 90,-199 199,-199l133 0 0 0zm2350 526l377 -509c68,-92 207,-90 270,-6l382 517c11,13 17,30 17,48 0,40 -32,73 -73,73 -27,0 -50,-15 -63,-36l-370 -500c-10,-14 -42,-12 -52,2l-371 500 0 0c-13,20 -36,34 -62,34 -41,0 -74,-33 -74,-73 0,-19 8,-37 19,-50l0 0zm512 -154c58,0 106,47 106,105 0,58 -48,105 -106,105 -58,0 -105,-47 -105,-105 0,-58 47,-105 105,-105zm2557 -372l253 0 370 0c40,0 73,33 73,74l0 0c0,40 -33,73 -73,73l-370 0 -253 0 -39 0 -182 0c-81,0 -148,66 -148,148l0 59c0,82 67,148 148,148l182 0 39 0 253 0 370 0c40,0 73,33 73,74l0 0c0,40 -33,73 -73,73l-370 0 -253 0 -224 0c-160,0 -292,-132 -292,-292l0 -65c0,-160 132,-292 292,-292l224 0 0 0zm-183 251l732 0c40,0 73,33 73,74l0 0c0,40 -33,73 -73,73l-732 0c-41,0 -74,-33 -74,-73l0 0c0,-41 33,-74 74,-74zm-1204 -251l253 0 370 0c40,0 73,33 73,74l0 0c0,40 -33,73 -73,73l-370 0 -253 0 -39 0 -182 0c-81,0 -148,66 -148,148l0 59c0,82 67,148 148,148l182 0 39 0 253 0 370 0c40,0 73,33 73,74l0 0c0,40 -33,73 -73,73l-370 0 -253 0 -224 0c-160,0 -292,-132 -292,-292l0 -65c0,-160 132,-292 292,-292l224 0 0 0zm-2100 0l-176 0 -582 0 0 0 -2 0 -2 0 -2 0 0 0 -2 1 -2 0 -1 0 -2 0 0 0 -2 1 -2 0 -1 0 -2 1 -2 0 -2 1 0 0 -1 1 -2 0 -2 1 -1 1 -2 0 -2 1 -1 1 -2 1 0 0 -1 1 0 0 -2 1 0 0 -1 1 -2 1 0 0 -1 1 -1 1 0 0 -2 1 -1 1 0 0 -2 1 -1 1 -1 2 0 0 -1 1 -1 1 -2 2 0 0 -1 1 -1 1 0 0 -1 2 -1 1 -1 2 0 0 -1 1 0 0 -1 2 0 0 -1 1 0 0 -1 2 0 1 0 0 -1 2 -1 1 -1 2 0 0 0 2 0 0 -1 1 0 0 -1 2 0 0 0 2 0 0 -1 2 0 1 -1 2 0 0 0 2 0 0 0 2 0 0 -1 1 0 0 0 2 0 0 0 2 0 0 0 2 0 0 0 2 0 0 -1 2 0 0 0 2 0 0 0 502c0,40 33,73 74,73l0 0c40,0 73,-33 73,-73l0 -178 1 0 185 0 184 0 57 0 244 0 147 0c109,0 199,-90 199,-199l0 0c0,-109 -90,-199 -199,-199l-133 0 0 0zm-685 147l509 0 176 0 133 0c28,0 52,23 52,52l0 0c0,29 -24,52 -52,52l-147 0 -244 0 -57 0 -184 0 -185 0 -1 0 0 -104 0 0z"/>
   </g>
  </g>
  <path class="fil2" d="M24 2060l117 -556 68 0 -42 199c21,-20 40,-34 57,-42 17,-9 35,-13 54,-13 37,0 67,14 92,42 24,28 36,69 36,123 0,35 -5,68 -14,97 -10,30 -23,55 -37,75 -15,20 -30,36 -45,48 -16,12 -32,21 -48,27 -16,6 -32,9 -47,9 -26,0 -49,-7 -68,-21 -20,-14 -36,-35 -47,-63l-16 75 -60 0zm101 -165l0 13c0,34 8,60 24,78 16,18 35,27 59,27 24,0 45,-9 65,-25 19,-17 35,-43 48,-79 12,-36 19,-69 19,-99 0,-34 -8,-60 -24,-78 -16,-19 -36,-29 -59,-29 -24,0 -46,10 -66,29 -20,19 -37,49 -51,88 -10,30 -15,55 -15,75zm728 28l66 7c-9,33 -32,64 -66,94 -35,30 -76,45 -124,45 -30,0 -57,-7 -82,-21 -25,-14 -44,-34 -57,-60 -13,-26 -20,-56 -20,-90 0,-44 10,-86 31,-128 20,-41 47,-72 79,-92 32,-20 68,-30 105,-30 49,0 87,15 116,45 29,30 43,70 43,122 0,19 -2,39 -5,60l-298 0c-1,8 -2,15 -2,21 0,38 9,67 26,87 18,20 39,30 64,30 24,0 47,-8 70,-23 23,-16 41,-38 54,-67zm-201 -101l227 0c0,-7 0,-12 0,-15 0,-34 -8,-60 -25,-79 -18,-18 -40,-27 -67,-27 -30,0 -57,10 -81,30 -24,20 -42,51 -54,91zm410 393l4 -64c14,4 28,6 41,6 14,0 25,-4 34,-10 11,-8 23,-24 37,-47l22 -39 -67 -404 67 0 31 203c6,40 11,80 15,120l180 -323 72 0 -257 456c-25,45 -47,74 -66,89 -19,14 -42,21 -67,21 -15,0 -31,-2 -46,-8zm526 -308c0,-79 24,-144 70,-195 38,-43 88,-64 150,-64 49,0 88,15 118,46 29,30 44,71 44,122 0,47 -9,90 -28,129 -19,40 -45,71 -80,92 -34,21 -71,32 -109,32 -31,0 -60,-7 -85,-20 -26,-14 -46,-33 -59,-57 -14,-25 -21,-53 -21,-85zm69 -7c0,38 9,67 27,86 19,20 42,30 70,30 15,0 30,-3 44,-9 14,-6 28,-15 40,-27 13,-12 24,-26 32,-42 9,-15 16,-32 21,-50 8,-25 12,-49 12,-72 0,-36 -9,-65 -27,-85 -19,-20 -42,-30 -70,-30 -22,0 -41,5 -59,15 -18,11 -34,26 -48,45 -15,20 -25,43 -32,69 -7,26 -10,50 -10,70zm451 160l85 -403 62 0 -14 70c27,-27 53,-47 77,-60 23,-12 48,-19 72,-19 34,0 59,9 78,27 19,18 28,41 28,71 0,15 -3,39 -10,71l-55 243 -68 0 57 -255c5,-25 8,-43 8,-55 0,-13 -4,-24 -14,-32 -9,-9 -23,-13 -41,-13 -36,0 -68,13 -96,38 -28,25 -48,68 -61,130l-40 187 -68 0zm804 -58c-39,44 -80,67 -123,67 -38,0 -70,-14 -95,-42 -25,-29 -38,-70 -38,-123 0,-49 10,-94 30,-134 20,-41 45,-71 75,-91 31,-21 61,-31 91,-31 50,0 88,24 114,73l45 -217 69 0 -116 556 -64 0 12 -58zm-188 -111c0,28 3,50 9,66 5,16 15,30 28,41 14,10 30,16 48,16 32,0 60,-17 85,-49 34,-43 51,-96 51,-159 0,-31 -8,-56 -25,-74 -17,-18 -38,-27 -63,-27 -16,0 -32,4 -45,11 -14,7 -27,20 -40,37 -14,18 -25,40 -34,67 -9,27 -14,51 -14,71zm1257 113l-11 57c-17,4 -33,6 -48,6 -27,0 -49,-7 -65,-20 -12,-10 -18,-24 -18,-41 0,-9 3,-30 9,-62l49 -234 -54 0 11 -53 54 0 21 -99 79 -47 -31 146 67 0 -11 53 -67 0 -47 223c-6,28 -9,45 -9,51 0,8 3,14 7,18 5,5 13,7 23,7 16,0 29,-2 41,-5zm156 56l117 -556 68 0 -45 214c25,-25 49,-43 70,-54 22,-10 44,-16 67,-16 33,0 59,9 77,27 18,17 27,40 27,69 0,14 -4,40 -13,78l-53 238 -68 0 54 -244c8,-35 11,-57 11,-66 0,-13 -4,-24 -13,-32 -9,-9 -22,-13 -39,-13 -24,0 -47,6 -69,20 -22,12 -40,30 -52,53 -13,22 -24,59 -34,109l-37 173 -68 0zm829 -137l66 7c-9,33 -31,64 -66,94 -35,30 -76,45 -124,45 -30,0 -57,-7 -82,-21 -25,-14 -44,-34 -57,-60 -13,-26 -20,-56 -20,-90 0,-44 10,-86 31,-128 20,-41 47,-72 79,-92 33,-20 68,-30 106,-30 48,0 86,15 115,45 29,30 43,70 43,122 0,19 -2,39 -5,60l-298 0c-1,8 -2,15 -2,21 0,38 9,67 27,87 17,20 38,30 63,30 24,0 47,-8 70,-23 23,-16 41,-38 54,-67zm-201 -101l227 0c0,-7 1,-12 1,-15 0,-34 -9,-60 -26,-79 -18,-18 -40,-27 -67,-27 -30,0 -56,10 -81,30 -24,20 -42,51 -54,91zm1213 -318l74 0 -71 342c-6,28 -9,49 -9,63 0,30 11,54 35,72 23,18 53,27 89,27 28,0 54,-6 79,-19 24,-13 43,-33 57,-58 14,-25 27,-66 39,-121l64 -306 74 0 -69 326c-11,56 -27,100 -45,132 -19,33 -46,59 -79,78 -34,20 -72,30 -117,30 -42,0 -78,-7 -109,-21 -30,-14 -54,-33 -69,-58 -15,-24 -23,-52 -23,-83 0,-19 5,-53 16,-101l64 -303zm532 556l84 -403 63 0 -15 70c28,-27 53,-47 77,-60 24,-12 48,-19 73,-19 33,0 59,9 78,27 19,18 28,41 28,71 0,15 -4,39 -11,71l-54 243 -68 0 56 -255c6,-25 9,-43 9,-55 0,-13 -5,-24 -14,-32 -10,-9 -23,-13 -41,-13 -36,0 -68,13 -96,38 -28,25 -49,68 -62,130l-39 187 -68 0zm631 -479l17 -77 68 0 -16 77 -69 0zm-100 479l85 -403 68 0 -85 403 -68 0zm375 0l-66 -403 67 0 35 222c3,24 8,64 14,119 13,-29 30,-62 50,-99l135 -242 73 0 -231 403 -77 0zm684 -137l67 7c-10,33 -32,64 -66,94 -35,30 -76,45 -124,45 -30,0 -58,-7 -83,-21 -25,-14 -44,-34 -57,-60 -13,-26 -19,-56 -19,-90 0,-44 10,-86 30,-128 21,-41 47,-72 80,-92 32,-20 67,-30 105,-30 48,0 87,15 115,45 29,30 44,70 44,122 0,19 -2,39 -6,60l-298 0c-1,8 -1,15 -1,21 0,38 9,67 26,87 17,20 39,30 64,30 23,0 47,-8 70,-23 23,-16 40,-38 53,-67zm-201 -101l228 0c0,-7 0,-12 0,-15 0,-34 -9,-60 -26,-79 -17,-18 -39,-27 -67,-27 -29,0 -56,10 -80,30 -25,20 -43,51 -55,91zm437 238l84 -403 61 0 -17 82c21,-31 41,-54 61,-68 20,-15 40,-23 61,-23 14,0 30,5 50,15l-28 64c-12,-9 -25,-13 -39,-13 -24,0 -49,13 -74,40 -25,27 -46,75 -60,145l-34 161 -65 0zm365 -138l69 -4c0,20 3,36 9,50 6,14 17,26 33,35 17,8 36,13 57,13 30,0 53,-6 68,-18 15,-12 23,-27 23,-43 0,-12 -5,-23 -14,-34 -9,-11 -32,-24 -68,-39 -36,-16 -59,-26 -69,-33 -17,-10 -30,-22 -39,-37 -8,-13 -12,-30 -12,-48 0,-32 12,-59 37,-82 26,-22 61,-34 106,-34 51,0 89,12 116,35 26,24 40,54 41,93l-67 4c-1,-24 -10,-43 -26,-58 -16,-14 -39,-21 -68,-21 -24,0 -42,6 -55,16 -13,11 -20,23 -20,36 0,12 6,24 17,33 8,7 27,17 58,31 53,22 86,40 99,53 22,21 33,47 33,77 0,20 -6,39 -19,59 -12,19 -30,34 -56,46 -25,11 -54,17 -88,17 -47,0 -86,-12 -119,-35 -32,-23 -48,-60 -46,-112zm778 1l67 7c-9,33 -32,64 -66,94 -35,30 -76,45 -124,45 -30,0 -57,-7 -82,-21 -25,-14 -44,-34 -57,-60 -13,-26 -20,-56 -20,-90 0,-44 10,-86 31,-128 20,-41 47,-72 79,-92 32,-20 68,-30 105,-30 49,0 87,15 116,45 29,30 43,70 43,122 0,19 -2,39 -5,60l-298 0c-1,8 -2,15 -2,21 0,38 9,67 26,87 18,20 39,30 64,30 24,0 47,-8 70,-23 23,-16 41,-38 53,-67zm-200 -101l227 0c0,-7 0,-12 0,-15 0,-34 -8,-60 -25,-79 -18,-18 -40,-27 -67,-27 -30,0 -57,10 -81,30 -24,20 -42,51 -54,91z"/>
 </g>
</svg>
