<?xml version="1.0" encoding="UTF-8"?>
<!DOCTYPE svg PUBLIC "-//W3C//DTD SVG 1.1//EN" "http://www.w3.org/Graphics/SVG/1.1/DTD/svg11.dtd">
<!-- Creator: CorelDRAW -->
<svg xmlns="http://www.w3.org/2000/svg" xml:space="preserve" width="156px" height="164px" version="1.1" style="shape-rendering:geometricPrecision; text-rendering:geometricPrecision; image-rendering:optimizeQuality; fill-rule:evenodd; clip-rule:evenodd"
viewBox="0 0 971700 1021900"
 xmlns:xlink="http://www.w3.org/1999/xlink"
 xmlns:xodm="http://www.corel.com/coreldraw/odm/2003">
 <defs>
  <style type="text/css">
   <![CDATA[
    .fil0 {fill:#00C8FF}
   ]]>
  </style>
 </defs>
 <g id="Слой_x0020_1">
  <metadata id="CorelCorpID_0Corel-Layer"/>
  <path class="fil0" d="M400900 226500c-3900,-81100 4400,-149500 91700,-144100 76800,4700 84000,64900 80600,143500l-172300 600zm398700 776400l13700 19000 7400 -19500 700 -32500c5800,-50200 24800,-105200 9900,-147800 -23300,-1800 -8500,-2600 -29000,600l-13900 7700c-16500,38900 6500,100800 11700,149100l-500 23400zm-279500 -987800c-11400,-16900 -17400,-16100 -45000,-14000 -300,100 -23200,5200 -24700,5700 -58400,21500 2000,-2000 -22800,12700 -110800,80000 -80400,165800 -80200,318800 100,72500 -11200,365400 4700,408500l90400 3500 6200 47900 77100 -2200 5100 -44700 94400 -2900c1900,-139300 500,-280000 300,-419400 -200,-141200 26300,-289500 -105500,-313900zm-358100 1000900c15400,-53500 39200,-144200 23600,-192700 -52700,-13700 -55700,18000 -46100,72700 7200,40700 14700,80500 22500,120000zm326700 1000c7800,-37400 56000,-218800 -10300,-197600 -43000,13800 -4100,158900 10300,197600zm-225100 -664800c-21900,48500 -24400,81200 -54400,113300 -28400,30500 -54900,54500 -84700,83300 -130200,125900 -124300,100200 -124500,201500l100800 1100c58200,12100 -46500,45500 93400,44600l13600 -25800c200,-400 1900,-9600 5000,-18100l112100 -1500 -3300 -400300 -58000 1900zm388500 398800c203300,700 61600,27500 130100,45200l56000 0c65800,-18500 -73600,-44600 133100,-44900 1000,-107600 7400,-76600 -119400,-202600 -66800,-66400 -97900,-74700 -136200,-187200l-63500 -8100 -100 397600z"/>
 </g>
</svg>
