<?xml version="1.0" encoding="UTF-8"?>
<!DOCTYPE svg PUBLIC "-//W3C//DTD SVG 1.1//EN" "http://www.w3.org/Graphics/SVG/1.1/DTD/svg11.dtd">
<!-- Creator: CorelDRAW -->
<svg xmlns="http://www.w3.org/2000/svg" xml:space="preserve" width="174px" height="168px" version="1.1" style="shape-rendering:geometricPrecision; text-rendering:geometricPrecision; image-rendering:optimizeQuality; fill-rule:evenodd; clip-rule:evenodd"
viewBox="0 0 68900 66600"
 xmlns:xlink="http://www.w3.org/1999/xlink"
 xmlns:xodm="http://www.corel.com/coreldraw/odm/2003">
 <defs>
  <style type="text/css">
   <![CDATA[
    .fil0 {fill:#20C4F4}
   ]]>
  </style>
 </defs>
 <g id="Слой_x0020_1">
  <metadata id="CorelCorpID_0Corel-Layer"/>
  <path class="fil0" d="M49500 25000c-700,11500 -11900,9400 -19700,9400 -4700,0 -7700,-1800 -9400,-5000 -1500,-2900 -1500,-9600 -600,-13100 1600,-6700 8400,-13100 17100,-11500 7700,1400 12700,7600 12600,16500 -400,1800 -5700,3500 -7700,4100 -4800,1400 -700,-700 -6300,-600 -1100,0 -2700,-100 -3800,0 -2800,200 -2700,2900 -1700,4800 1800,500 4100,400 6200,400 4000,0 1400,-1100 4400,-1800 6700,-1500 4600,-1600 8900,-3200zm-25200 -6900c2900,2000 2000,-2200 3600,-4400 1700,-2200 6300,-1500 5600,-3600 -900,-2800 -10400,1000 -9200,8000zm-7900 17200c-800,6700 300,9200 4400,11800 2400,1600 9400,4000 13000,3200l0 -5800c-4600,-1000 -6700,-100 -11200,-2400 -3000,-1600 -4600,-3800 -6200,-6800zm18600 15000c3700,800 10800,-1700 13300,-3300 3800,-2500 5200,-5500 4200,-12000 -1200,3200 -3800,5600 -6400,7000 -4300,2400 -6500,1500 -11000,2500l-100 5800zm23200 -7000c-1100,4400 -1000,7200 -400,12100 300,2700 1100,8500 2000,10800 2000,700 6500,200 8900,200 500,-3900 -400,-11600 -1400,-15200 -1400,-4400 -3800,-7700 -9100,-7900zm-49100 22900c900,-2300 1700,-8300 2000,-11100 600,-4800 700,-7500 -500,-11800 -5200,200 -7700,3500 -9000,7900 -1000,3600 -1900,11300 -1500,15200 2400,0 7000,500 9000,-200zm20800 -8600l-100 4700c-500,700 -1000,400 -3100,400 -2600,0 -9700,300 -11200,-200l-100 -5000c1600,-500 8400,-200 11000,-200 600,0 1300,-100 1900,-100 1400,100 1200,100 1600,400zm-19200 8300c1200,1000 19700,300 22800,300 0,-3000 400,-12200 -200,-14500 -8400,-900 -14400,-2500 -17800,-8500l-3500 100c900,4200 1000,6900 400,11500 -300,2700 -1800,9300 -1700,11100zm31200 -8300c-1000,700 -2600,700 -3600,0 200,-1100 700,-900 2000,-800 1500,0 1300,-100 1600,800zm8900 0c0,-1300 2900,-1100 2900,0 -300,200 -200,200 -800,400 -700,300 -1500,100 -2100,-400zm-2700 0c-900,700 -2700,600 -3500,100 -200,-800 400,-900 1400,-900 2000,0 1800,-200 2100,800zm-12600 -5900c-500,2300 -200,11500 -200,14500 3200,0 21600,700 22900,-300 200,-4300 -3700,-12000 -1300,-22700l-3500 0c-3400,6000 -9400,7600 -17900,8500zm-18600 -40100c-6600,400 -6300,2000 -6300,8500 0,10900 -800,8700 5300,9500 1700,5300 2100,7400 5600,10200 3200,2500 7800,3300 12800,3400 4900,0 9700,-800 12900,-3300 3600,-2800 4100,-5100 5700,-10400 6400,-300 5400,600 5400,-9400 0,-6400 200,-8300 -6500,-8500 -5800,-16100 -30100,-14800 -34900,0z"/>
 </g>
</svg>
