<?xml version="1.0" encoding="UTF-8"?>
<!DOCTYPE svg PUBLIC "-//W3C//DTD SVG 1.1//EN" "http://www.w3.org/Graphics/SVG/1.1/DTD/svg11.dtd">
<!-- Creator: CorelDRAW -->
<svg xmlns="http://www.w3.org/2000/svg" xml:space="preserve" width="142px" height="138px" version="1.1" style="shape-rendering:geometricPrecision; text-rendering:geometricPrecision; image-rendering:optimizeQuality; fill-rule:evenodd; clip-rule:evenodd"
viewBox="0 0 230100 222400"
 xmlns:xlink="http://www.w3.org/1999/xlink"
 xmlns:xodm="http://www.corel.com/coreldraw/odm/2003">
 <defs>
  <style type="text/css">
   <![CDATA[
    .fil0 {fill:#00C8FF}
   ]]>
  </style>
 </defs>
 <g id="Слой_x0020_1">
  <metadata id="CorelCorpID_0Corel-Layer"/>
  <path class="fil0" d="M165500 83400c-2300,38500 -40000,31700 -65800,31700 -16000,0 -25700,-6000 -31400,-16800 -5200,-9900 -5000,-32100 -2200,-43700 5300,-22600 28000,-43900 57100,-38600 25700,4600 42400,25600 42300,55200 -1300,5800 -19200,11800 -25700,13700 -16100,4700 -2500,-2300 -21100,-2200 -3900,0 -9000,-200 -12700,100 -9500,700 -9100,9800 -5600,16100 5700,1700 13700,1400 20500,1300 13500,-100 4800,-3500 14700,-5800 22400,-5200 15300,-5400 29900,-11000zm-84400 -23000c9800,6900 6800,-7400 12200,-14500 5700,-7500 20900,-5000 18600,-12200 -2900,-9200 -34700,3400 -30800,26700zm-26400 57500c-2600,22500 1000,30800 14700,39500 8200,5200 31600,13200 43600,10500l-100 -19200c-15300,-3400 -22300,-300 -37200,-8100 -10200,-5400 -15500,-12500 -21000,-22700zm62400 50000c12200,2800 35800,-5400 44200,-10900 12700,-8300 17500,-18400 14000,-40000 -3800,10600 -12500,18700 -21100,23400 -14500,7800 -21800,5000 -37100,8300l0 19200zm77400 -23300c-3900,14800 -3600,24100 -1500,40400 1100,9200 3700,28400 6700,36000 6600,2600 21900,800 29900,800 1600,-13000 -1400,-38800 -4900,-50600 -4400,-15000 -12600,-25800 -30200,-26600zm-164200 76400c3200,-7700 5800,-27600 6900,-37000 1900,-15900 2200,-24900 -1700,-39400 -17600,800 -25800,11600 -30200,26600 -3400,11800 -6400,37600 -4900,50600 8100,0 23300,1800 29900,-800zm69400 -28400l0 15500c-1700,2400 -3600,1400 -10600,1400 -8700,-100 -32300,900 -37400,-800l-200 -16600c5200,-1800 27900,-800 36600,-800 2000,0 4400,-100 6400,-100 4600,100 3900,200 5200,1400zm-64100 27600c4300,3200 65900,1100 76400,1100 0,-10100 1200,-40900 -700,-48500 -28200,-3200 -48200,-8600 -59500,-28400l-11800 200c3200,14200 3300,23100 1500,38400 -1000,9000 -6200,31000 -5900,37200zm104300 -27700c-3200,2300 -8600,2300 -12000,0 800,-3700 2400,-2900 6700,-2900 5000,100 4300,-200 5300,2900zm29800 0c0,-4500 9800,-3700 9600,0 -1000,700 -600,600 -2400,1300 -2600,900 -5200,200 -7200,-1300zm-8900 0c-3200,2400 -9200,1800 -11900,200 -400,-2700 1500,-3000 4700,-3000 6700,0 6200,-600 7200,2800zm-42100 -19700c-1900,7600 -600,38400 -600,48500 10500,0 72000,2100 76300,-1100 900,-14500 -12300,-40200 -4400,-75700l-11700 -100c-11400,19800 -31400,25200 -59600,28400zm-62200 -134200c-22200,1600 -21200,6800 -21200,28400 0,36400 -2500,29300 17800,31800 5600,17700 7000,24800 18700,34100 10800,8500 26100,11200 42700,11300 16500,100 32500,-2400 43200,-10800 11900,-9400 13700,-17200 18900,-34800 21400,-1000 18200,1900 18200,-31600 0,-21100 800,-27600 -21600,-28300 -19400,-53900 -100600,-49300 -116700,-100z"/>
 </g>
</svg>
