<?xml version="1.0" encoding="UTF-8"?>
<!DOCTYPE svg PUBLIC "-//W3C//DTD SVG 1.1//EN" "http://www.w3.org/Graphics/SVG/1.1/DTD/svg11.dtd">
<!-- Creator: CorelDRAW -->
<svg xmlns="http://www.w3.org/2000/svg" xml:space="preserve" width="127px" height="139px" version="1.1" style="shape-rendering:geometricPrecision; text-rendering:geometricPrecision; image-rendering:optimizeQuality; fill-rule:evenodd; clip-rule:evenodd"
viewBox="0 0 465000 506500"
 xmlns:xlink="http://www.w3.org/1999/xlink"
 xmlns:xodm="http://www.corel.com/coreldraw/odm/2003">
 <defs>
  <style type="text/css">
   <![CDATA[
    .fil0 {fill:#00C8FF}
   ]]>
  </style>
 </defs>
 <g id="Слой_x0020_1">
  <metadata id="CorelCorpID_0Corel-Layer"/>
  <path class="fil0" d="M43300 189500l370800 -300 -200 266300 -370800 200 200 -266200zm98600 -58400c-500,6700 -10500,5500 -17700,5400 -13600,0 -17100,300 -17100,-14100 0,-10100 100,-20300 100,-30400 -100,-10100 -200,-20200 -100,-30300 300,-25500 -1700,-24400 21800,-24500 17700,-100 14200,6600 14200,33000 0,6100 700,55800 -400,59100 -400,1400 -300,1000 -800,1800zm210100 4800c-4000,1300 -12100,600 -16900,600 -6200,100 -11700,-100 -12200,-5400l-600 -1200c-400,-1100 -400,-400 -600,-2000 -100,-900 -100,-3000 -100,-3900l0 -58400c0,-28600 -2700,-28300 21300,-28400 6900,0 11200,-400 13200,5000l600 2200c500,900 400,300 700,1800l200 70000c-100,9400 2200,16400 -5600,19700zm-247900 -134200c-1700,1400 -6800,2500 -9300,4100 -3300,1900 -5100,3500 -7700,5300 -1400,2000 -1500,2100 -3600,3300l-3100 4200c-4900,6600 -6300,12900 -7400,14300 -2000,16400 -800,33000 -1800,40300l-38900 100c-4000,400 -7800,2000 -10900,2100 -3000,3300 -10300,3900 -18300,19300l-1800 3200c-100,100 -200,300 -400,500 400,3100 -800,7100 -900,10800l200 369600 2300 5000c5000,12600 16100,21400 30300,22600l363800 100c10100,0 20300,0 30400,0 15800,0 15300,-3300 23700,-6700 10900,-11100 14300,-16000 14000,-37300 -800,-87200 900,-175800 0,-263100 -100,-17300 100,-34700 100,-52100l-100 -39700c-200,-4000 -1600,-7700 -1500,-11300 -2000,-1500 -3000,-4900 -4300,-6700 -3600,-5100 -5800,-7300 -10900,-10800 -2100,-1500 -5100,-2200 -6700,-4300 -3300,100 -6300,-1000 -10400,-1300l-37300 -100c-1800,-11700 1200,-28100 -1700,-39300 -900,-3400 -3200,-7600 -3500,-10200 -2600,-2200 -6300,-10600 -18500,-17700 -13500,-7800 -45700,-7700 -59300,-700 -5600,2900 -11000,7400 -14500,11900l-3600 4500c-100,-200 -300,300 -500,400l-500 1300 -3800 8400 -1400 8800 -400 32700 -107000 -100c-800,-8800 0,-18800 -200,-27800 -300,-11200 -2700,-13800 -5500,-22600 -1400,-900 -3000,-3900 -4400,-5600 -7800,-9700 -15800,-11800 -17900,-13600 -8800,-2300 -12700,-3200 -22800,-3200 -4100,0 -8400,-100 -12500,100 -3900,100 -7500,1000 -11500,1300z"/>
 </g>
</svg>
