<?xml version="1.0" encoding="UTF-8"?>
<!DOCTYPE svg PUBLIC "-//W3C//DTD SVG 1.1//EN" "http://www.w3.org/Graphics/SVG/1.1/DTD/svg11.dtd">
<!-- Creator: CorelDRAW -->
<svg xmlns="http://www.w3.org/2000/svg" xml:space="preserve" width="88px" height="134px" version="1.1" style="shape-rendering:geometricPrecision; text-rendering:geometricPrecision; image-rendering:optimizeQuality; fill-rule:evenodd; clip-rule:evenodd"
viewBox="0 0 52900 80300"
 xmlns:xlink="http://www.w3.org/1999/xlink"
 xmlns:xodm="http://www.corel.com/coreldraw/odm/2003">
 <defs>
  <style type="text/css">
   <![CDATA[
    .fil0 {fill:#00C8FF}
   ]]>
  </style>
 </defs>
 <g id="Слой_x0020_1">
  <metadata id="CorelCorpID_0Corel-Layer"/>
  <path class="fil0" d="M44800 80300l-2100 -3200c-8900,3300 -12800,1800 -19400,300 -15300,-16600 -24000,-37400 -23300,-59900 4200,-5900 9300,-9700 14900,-12600l-500 -3700 9600 -1200 3400 26800 -9600 1200 -300 -1800c-1100,1000 -1900,2300 -2200,4300 2400,12100 5200,16200 11000,27000 1500,1400 3000,1800 4500,1800l-1000 -1500 8000 -5400 15100 22500 -8100 5400z"/>
 </g>
</svg>
