<?xml version="1.0" encoding="UTF-8"?>
<!DOCTYPE svg PUBLIC "-//W3C//DTD SVG 1.1//EN" "http://www.w3.org/Graphics/SVG/1.1/DTD/svg11.dtd">
<!-- Creator: CorelDRAW -->
<svg xmlns="http://www.w3.org/2000/svg" xml:space="preserve" width="143px" height="117px" version="1.1" style="shape-rendering:geometricPrecision; text-rendering:geometricPrecision; image-rendering:optimizeQuality; fill-rule:evenodd; clip-rule:evenodd"
viewBox="0 0 109700 89700"
 xmlns:xlink="http://www.w3.org/1999/xlink"
 xmlns:xodm="http://www.corel.com/coreldraw/odm/2003">
 <defs>
  <style type="text/css">
   <![CDATA[
    .fil0 {fill:#00C8FF}
   ]]>
  </style>
 </defs>
 <g id="Слой_x0020_1">
  <metadata id="CorelCorpID_0Corel-Layer"/>
  <path class="fil0" d="M91300 3000c-11300,13600 -22600,27200 -33900,40900 -1200,1300 -2800,2300 -4600,2000l-52800 -9100c0,1200 100,2500 600,3700l15900 42900c500,1500 1400,2700 2500,3700l11600 -25400c800,-1600 2700,-2300 4300,-1500l0 0c1600,700 2300,2600 1600,4200l-11600 25300c1300,100 2600,-100 3900,-600l74700 -27700c900,-300 1700,-800 2500,-1400l-26700 -12200c-1600,-700 -2300,-2600 -1500,-4200 700,-1600 2600,-2300 4200,-1600l27500 12600c400,-1800 300,-3700 -300,-5500l-15900 -42900c-500,-1200 -1200,-2300 -2000,-3200zm-5800 -3000l-32600 39100c0,100 -100,200 -100,300l-8900 -1600c-200,0 -400,-100 -600,-100l-40900 -7000 83100 -30700z"/>
 </g>
</svg>
