<?xml version="1.0" encoding="UTF-8"?>
<!DOCTYPE svg PUBLIC "-//W3C//DTD SVG 1.1//EN" "http://www.w3.org/Graphics/SVG/1.1/DTD/svg11.dtd">
<!-- Creator: CorelDRAW -->
<svg xmlns="http://www.w3.org/2000/svg" xml:space="preserve" width="166px" height="242px" version="1.1" style="shape-rendering:geometricPrecision; text-rendering:geometricPrecision; image-rendering:optimizeQuality; fill-rule:evenodd; clip-rule:evenodd"
viewBox="0 0 23100 33600"
 xmlns:xlink="http://www.w3.org/1999/xlink"
 xmlns:xodm="http://www.corel.com/coreldraw/odm/2003">
 <defs>
  <style type="text/css">
   <![CDATA[
    .fil0 {fill:#34A9E0}
   ]]>
  </style>
 </defs>
 <g id="Слой_x0020_1">
  <metadata id="CorelCorpID_0Corel-Layer"/>
  <path class="fil0" d="M9200 30200c-300,0 -500,200 -500,500l0 600c0,200 200,400 500,400l2300 0 2400 0c200,0 400,-200 400,-400l0 -600c0,-300 -200,-500 -400,-500l-2400 0 -2300 0zm2300 3400l-10200 0c-700,0 -1300,-600 -1300,-1300l0 -31000c0,-700 600,-1300 1300,-1300l0 0 10200 0 10200 0 0 0c800,0 1400,600 1400,1300l0 31000c0,700 -600,1300 -1400,1300l-10200 0zm0 -30700l-8400 0 0 25400 8400 0 8500 0 0 -25400 -8500 0z"/>
 </g>
</svg>
