<?xml version="1.0" encoding="UTF-8"?>
<!DOCTYPE svg PUBLIC "-//W3C//DTD SVG 1.1//EN" "http://www.w3.org/Graphics/SVG/1.1/DTD/svg11.dtd">
<!-- Creator: CorelDRAW -->
<svg xmlns="http://www.w3.org/2000/svg" xml:space="preserve" width="176px" height="272px" version="1.1" style="shape-rendering:geometricPrecision; text-rendering:geometricPrecision; image-rendering:optimizeQuality; fill-rule:evenodd; clip-rule:evenodd"
viewBox="0 0 66700 102800"
 xmlns:xlink="http://www.w3.org/1999/xlink"
 xmlns:xodm="http://www.corel.com/coreldraw/odm/2003">
 <defs>
  <style type="text/css">
   <![CDATA[
    .fil0 {fill:#20C4F4}
   ]]>
  </style>
 </defs>
 <g id="Слой_x0020_1">
  <metadata id="CorelCorpID_0Corel-Layer"/>
  <path class="fil0" d="M33400 0c18400,0 33300,14900 33300,33400 0,6100 -1600,11900 -4500,16800l200 100 -29000 52500 -29000 -52500 200 -100c-2900,-4900 -4600,-10700 -4600,-16800 0,-18500 14900,-33400 33400,-33400zm0 15100c9800,0 17800,8000 17800,17800 0,9900 -8000,17900 -17800,17900 -9900,0 -17900,-8000 -17900,-17900 0,-9800 8000,-17800 17900,-17800z"/>
 </g>
</svg>
