<?xml version="1.0" encoding="UTF-8"?>
<!DOCTYPE svg PUBLIC "-//W3C//DTD SVG 1.1//EN" "http://www.w3.org/Graphics/SVG/1.1/DTD/svg11.dtd">
<!-- Creator: CorelDRAW -->
<svg xmlns="http://www.w3.org/2000/svg" xml:space="preserve" width="415px" height="440px" version="1.1" style="shape-rendering:geometricPrecision; text-rendering:geometricPrecision; image-rendering:optimizeQuality; fill-rule:evenodd; clip-rule:evenodd"
viewBox="0 0 1672800 1775600"
 xmlns:xlink="http://www.w3.org/1999/xlink"
 xmlns:xodm="http://www.corel.com/coreldraw/odm/2003">
 <defs>
  <style type="text/css">
   <![CDATA[
    .str0 {stroke:#00C8FF;stroke-width:2000;stroke-miterlimit:22.926;stroke-dasharray:3400.000000 3400.000000}
    .fil2 {fill:none}
    .fil1 {fill:#00C8FF}
    .fil0 {fill:#00C8FF;fill-rule:nonzero}
   ]]>
  </style>
 </defs>
 <g id="Слой_x0020_1">
  <metadata id="CorelCorpID_0Corel-Layer"/>
  <polygon class="fil0" points="0,29400 161400,29400 161400,59900 0,59900 "/>
  <polygon class="fil0" points="130900,0 161400,0 161400,59900 130900,59900 "/>
  <polygon class="fil0" points="588700,0 619200,0 619200,400900 588700,400900 "/>
  <polygon class="fil0" points="588700,380600 685100,380600 685100,411100 588700,411100 "/>
  <polygon class="fil0" points="654700,316700 685100,316700 685100,411100 654700,411100 "/>
  <polygon class="fil0" points="606500,881000 687700,881000 687700,957100 606500,957100 "/>
  <polygon class="fil0" points="1015600,1464200 1046000,1464200 1046000,1690300 1015600,1690300 "/>
  <polygon class="fil0" points="674500,1464200 705000,1464200 705000,1770300 674500,1770300 "/>
  <polygon class="fil0" points="635300,1745200 705000,1745200 705000,1775600 635300,1775600 "/>
  <polygon class="fil0" points="339100,1464200 369500,1464200 369500,1770300 339100,1770300 "/>
  <polygon class="fil0" points="339100,1745200 408700,1745200 408700,1775600 339100,1775600 "/>
  <polygon class="fil0" points="214200,1646700 343700,1646700 343700,1677200 214200,1677200 "/>
  <path class="fil0" d="M0 282500l30400 0 0 163600 -30400 0 0 -163600zm130900 -282500l488300 0 0 30500 -488300 0 0 -30500zm1524900 1486000l3200 11000c400,1300 0,2600 -900,3500l-65900 65900c-1500,1500 -3800,1500 -5200,0 -1400,-1400 -1400,-3700 0,-5100l64400 -64400 -2800 -9600 -8900 1500 -16700 -129700 15500 -2600 -47000 -373200 -11700 2000 -16700 -129600 9100 -1500 -54100 -408100 -7300 1300 -11200 -61700 -111100 0 0 98500 -30400 0 0 0 -13200 0 0 396800 19300 0 0 76100 -19300 0 0 100 -30500 0 0 -100 -31400 0 0 -76100 31400 0 0 -396800 -252700 0 0 -19300 0 -11200 0 -106600 -407000 0 0 -30400 407000 0 30400 0 100 0 0 30400 -100 0 0 106600 266000 0 0 -68000 0 -30400 30400 0 136600 0 500 0 0 2600 14200 78800 7600 -1300 55300 417900 -9100 1600 15200 117400 11700 -2000 52300 414900 -15500 2600 12400 95900 -13900 2300zm-114800 -11100l15800 0 0 28800 -15800 0 0 -6500 -154800 0 0 107000 -30400 0 0 -140000 30400 0 0 16400 154800 0 0 -5700zm0 18000l0 -7900 -154800 0 0 7900 154800 0z"/>
  <polygon class="fil0" points="0,802200 30400,802200 30400,956300 0,956300 "/>
  <polygon class="fil0" points="0,1313400 30400,1313400 30400,1509800 0,1509800 "/>
  <polygon class="fil0" points="7100,57000 11400,57000 11400,286100 7100,286100 "/>
  <polygon class="fil0" points="19300,57000 23700,57000 23700,286100 19300,286100 "/>
  <polygon class="fil0" points="7100,442100 11400,442100 11400,808400 7100,808400 "/>
  <polygon class="fil0" points="19300,442100 23700,442100 23700,808400 19300,808400 "/>
  <polygon class="fil0" points="7100,954000 11400,954000 11400,1320300 7100,1320300 "/>
  <polygon class="fil0" points="19300,954000 23700,954000 23700,1320300 19300,1320300 "/>
  <polygon class="fil1" points="217000,1673500 219000,1669600 9400,1557600 7300,1561500 "/>
  <polygon class="fil1" points="222700,1662700 224700,1658800 21400,1549900 19300,1553800 "/>
  <polygon class="fil0" points="7100,1479200 11400,1479200 11400,1560700 7100,1560700 "/>
  <polygon class="fil0" points="19300,1479200 23700,1479200 23700,1553200 19300,1553200 "/>
  <polygon class="fil0" points="701100,1667600 1026100,1667600 1026100,1672000 701100,1672000 "/>
  <polygon class="fil0" points="701100,1679900 1026100,1679900 1026100,1684200 701100,1684200 "/>
  <polygon class="fil0" points="1038800,1581900 1363900,1581900 1363900,1586300 1038800,1586300 "/>
  <polygon class="fil0" points="1038800,1594200 1363900,1594200 1363900,1598600 1038800,1598600 "/>
  <path class="fil0" d="M643900 1760600c2000,0 3600,1600 3600,3600 0,2000 -1600,3600 -3600,3600l-12100 0c-1200,0 -2200,-500 -2800,-1300l-74500 -78300c-1400,-1500 -1400,-3800 100,-5200 1400,-1300 3700,-1300 5100,200l73600 77400 10600 0z"/>
  <path class="fil0" d="M402700 1767800c-2000,0 -3600,-1600 -3600,-3600 0,-2000 1600,-3600 3600,-3600l10600 0 73600 -77400c1400,-1500 3700,-1500 5100,-200 1500,1400 1500,3700 100,5200l-74500 78300c-700,800 -1700,1300 -2800,1300l-12100 0z"/>
  <polygon class="fil0" points="781600,438600 950800,438600 950800,454100 781600,454100 "/>
  <path class="fil0" d="M1064300 441700c2000,0 3700,1600 3700,3600 0,2000 -1700,3600 -3700,3600l-8600 0 -73300 73400c-1400,1400 -3700,1400 -5200,0 -1400,-1400 -1400,-3700 0,-5100l74400 -74400c700,-700 1600,-1100 2600,-1100l10100 0z"/>
  <path class="fil0" d="M684500 522300l96700 0 0 -16500 -96700 0 0 16500zm98500 3600l-100300 0c-1000,0 -1800,-800 -1800,-1800l0 -20200c0,-1000 800,-1800 1800,-1800l100300 0c1000,0 1800,800 1800,1800l0 20200c0,1000 -800,1800 -1800,1800z"/>
  <path class="fil0" d="M682700 481900l100300 0c1000,0 1800,900 1800,1900l0 20100c0,1000 -800,1900 -1800,1900l-100300 0c-1000,0 -1800,-900 -1800,-1900l0 -20100c0,-1000 800,-1900 1800,-1900zm1800 20200l96700 0 0 -16500 -96700 0 0 16500z"/>
  <path class="fil0" d="M684500 481900l96700 0 0 -16500 -96700 0 0 16500zm98500 3700l-100300 0c-1000,0 -1800,-800 -1800,-1800l0 -20200c0,-1000 800,-1800 1800,-1800l100300 0c1000,0 1800,800 1800,1800l0 20200c0,1000 -800,1800 -1800,1800z"/>
  <path class="fil0" d="M682700 345700l82700 0 0 -2900c0,-1000 800,-1800 1800,-1800l54600 0c1000,0 1800,800 1800,1800l0 100300c0,1000 -800,1800 -1800,1800l-37000 0 0 18700c0,1000 -800,1800 -1800,1800l-100300 0c-1000,0 -1800,-800 -1800,-1800l0 -116100c0,-1000 800,-1800 1800,-1800zm84500 3600l-82700 0 0 112500 96700 0 0 -18700c0,-1000 800,-1800 1800,-1800l37000 0 0 -96700 -51000 0 0 2900c0,1000 -800,1800 -1800,1800z"/>
  <path class="fil0" d="M843800 441300l16500 0 0 -96700 -16500 0 0 96700zm20200 -98500l0 100300c0,1000 -800,1800 -1800,1800l-20200 0c-1000,0 -1800,-800 -1800,-1800l0 -100300c0,-1000 800,-1800 1800,-1800l20200 0c1000,0 1800,800 1800,1800z"/>
  <path class="fil0" d="M820000 443100l0 -100300c0,-1000 800,-1800 1800,-1800l20200 0c1000,0 1800,800 1800,1800l0 100300c0,1000 -800,1800 -1800,1800l-20200 0c-1000,0 -1800,-800 -1800,-1800zm3600 -1800l16600 0 0 -96700 -16600 0 0 96700z"/>
  <path class="fil0" d="M803000 438300c300,900 -100,2000 -1000,2400 -1000,300 -2000,-100 -2400,-1000l-37800 -92800c-400,-900 0,-2000 1000,-2300 900,-400 1900,0 2300,1000l37900 92700z"/>
  <path class="fil0" d="M684000 347600c-700,-700 -800,-1800 -100,-2600 700,-700 1800,-800 2500,-100l104100 95300c800,600 800,1800 100,2500 -600,700 -1800,800 -2500,100l-104100 -95200z"/>
  <path class="fil0" d="M681800 429400c-1000,-200 -1700,-1100 -1500,-2100 100,-1000 1100,-1600 2100,-1500l99600 17100c1000,100 1700,1100 1500,2100 -200,900 -1100,1600 -2100,1400l-99600 -17000z"/>
  <polygon class="fil1" points="818400,373400 838000,393000 818400,412700 818400,401000 748900,401000 748900,385000 818400,385000 "/>
  <path class="fil2 str0" d="M603000 14300l-453700 5100 -5200 31000 -121300 0 0 1503900 206600 105800 125600 -4600 -2500 -181300 250500 1200 0 -1461100zm1500 460300l0 1001900 765600 0 -36200 -538100 -400 -463800 -729000 0zm97700 1001900l0 193100 327200 0 -900 -193100 -326300 0zm666900 -1105500l0 99400 -40400 -1300 6400 465600 36000 547400 276200 1400 6600 -123100 -138400 -989400 -146400 0z"/>
 </g>
</svg>
