<?xml version="1.0" encoding="UTF-8"?>
<!DOCTYPE svg PUBLIC "-//W3C//DTD SVG 1.1//EN" "http://www.w3.org/Graphics/SVG/1.1/DTD/svg11.dtd">
<!-- Creator: CorelDRAW -->
<svg xmlns="http://www.w3.org/2000/svg" xml:space="preserve" width="143px" height="406px" version="1.1" style="shape-rendering:geometricPrecision; text-rendering:geometricPrecision; image-rendering:optimizeQuality; fill-rule:evenodd; clip-rule:evenodd"
viewBox="0 0 202100 573300"
 xmlns:xlink="http://www.w3.org/1999/xlink"
 xmlns:xodm="http://www.corel.com/coreldraw/odm/2003">
 <defs>
  <style type="text/css">
   <![CDATA[
    .fil0 {fill:#00C8FF;fill-rule:nonzero}
   ]]>
  </style>
 </defs>
 <g id="Слой_x0020_1">
  <metadata id="CorelCorpID_0Corel-Layer"/>
  <path class="fil0" d="M187300 0l-800 0 -186500 107700 0 600 100 200 187400 -108200 -200 -300zm-19000 200l-1300 0 -167000 96400 0 500 200 300 168100 -97100 0 -100zm-19400 200l-1400 100 -147500 85100 0 300 200 400 148700 -85900zm-19500 300l-1400 0 -128000 73900 0 100 300 500 129100 -74500zm-19500 200l-1400 0 -108500 62600 400 600 109500 -63200zm-19500 200l-1400 0 -88900 51300 400 600 89900 -51900zm-19500 200l-1400 0 -69300 40000 400 700 70300 -40700zm-19500 200l-1400 100 -5600 3200 400 600 6600 -3900zm-18800 10900l-1400 0 -30900 17900 300 600 32000 -18500zm-19100 0l-1500 0 -11600 6800 300 600 12800 -7400zm-13500 106300l0 800 0 0 202100 -116700 0 -800 -202100 116700zm0 11100l0 800 202100 -116700 0 -800 -202100 116700zm0 11000l0 800 202100 -116700 0 -800 -202100 116700zm0 10700l0 800 202100 -116700 0 -800 -202100 116700zm0 11000l0 900 202100 -116700 0 -900 -202100 116700zm0 11100l0 800 202100 -116700 0 -800 -202100 116700zm0 11000l0 800 202100 -116700 0 -800 -202100 116700zm0 11100l0 800 202100 -116700 0 -800 -202100 116700zm0 11000l0 800 202100 -116700 0 -800 -202100 116700zm0 11000l0 900 202100 -116700 0 -900 -202100 116700zm0 11100l0 800 202100 -116700 0 -800 -202100 116700zm0 11000l0 800 202100 -116700 0 -800 -202100 116700zm0 11100l0 800 202100 -116700 0 -900 -202100 116800zm0 11000l0 800 202100 -116700 0 -800 -202100 116700zm0 11000l0 900 202100 -116800 0 -800 -202100 116700zm0 11100l0 800 202100 -116700 0 -800 -202100 116700zm0 11000l0 800 202100 -116700 0 -800 -202100 116700zm0 11000l0 900 202100 -116700 0 -900 -202100 116700zm0 11100l0 800 202100 -116700 0 -800 -202100 116700zm0 11000l0 900 202100 -116800 0 -800 -202100 116700zm0 10900l0 800 202100 -116700 0 -800 -202100 116700zm0 11000l0 800 202100 -116700 0 -800 -202100 116700zm0 11100l0 800 202100 -116700 0 -800 -202100 116700zm0 11000l0 800 202100 -116700 0 -800 -202100 116700zm0 11000l0 900 202100 -116700 0 -900 -202100 116700zm0 11100l0 800 202100 -116700 0 -800 -202100 116700zm0 11000l0 800 202100 -116700 0 -800 -202100 116700zm0 11100l0 800 202100 -116700 0 -800 -202100 116700zm0 11000l0 800 202100 -116700 0 -800 -202100 116700zm0 11000l0 900 202100 -116700 0 -900 -202100 116700zm0 11100l0 800 202100 -116700 0 -800 -202100 116700zm0 11000l0 800 0 0 202100 -116700 0 -800 -202100 116700zm900 76400l700 400 200500 -115700 0 -900 -201200 116200zm10100 5200l800 400 190300 -109900 0 -800 -191100 110300zm10100 5200l800 400 180200 -104100 0 -800 -181000 104500zm10200 5200l700 400 170100 -98200 0 -800 -170800 98600zm10100 5200l800 400 72800 -42100 0 -800 -73600 42500zm10100 5200l800 400 62800 -36300 0 -800 -63600 36700zm10200 5200l700 400 52900 -30500 0 -900 -53600 31000zm10100 5200l200 100 1100 -100 42300 -24400 0 -800 -43600 25200zm20200 -700l1500 0 22100 -12700 0 -900 -23600 13600zm20400 -700l1600 -100 1700 -1000 0 -800 -3300 1900zm14000 -63200l1400 0 74300 -43000 0 -800 -75700 43800zm18900 0l1400 0 55400 -31900 0 -900 -56800 32800zm19000 100l1400 0 36400 -21000 0 -800 -37800 21800zm19000 100l1400 0 17400 -10100 0 -800 -18800 10900zm18800 -98400l0 -800 -201700 116500 400 600 201300 -116300zm0 -10700l0 -800 -201700 116500 400 600 201300 -116300zm0 -11000l0 -800 -201700 116400 400 600 201300 -116200zm0 -11100l0 -800 -201700 116500 400 600 201300 -116300zm0 -11000l0 -800 -201800 116500 400 600 201400 -116300zm0 -11000l0 -900 -202100 116800 400 600 201700 -116500z"/>
 </g>
</svg>
