<?xml version="1.0" encoding="UTF-8"?>
<!DOCTYPE svg PUBLIC "-//W3C//DTD SVG 1.1//EN" "http://www.w3.org/Graphics/SVG/1.1/DTD/svg11.dtd">
<!-- Creator: CorelDRAW -->
<svg xmlns="http://www.w3.org/2000/svg" xml:space="preserve" width="318px" height="362px" version="1.1" style="shape-rendering:geometricPrecision; text-rendering:geometricPrecision; image-rendering:optimizeQuality; fill-rule:evenodd; clip-rule:evenodd"
viewBox="0 0 95700 109000"
 xmlns:xlink="http://www.w3.org/1999/xlink"
 xmlns:xodm="http://www.corel.com/coreldraw/odm/2003">
 <defs>
  <style type="text/css">
   <![CDATA[
    .fil0 {fill:#00C8FF}
   ]]>
  </style>
 </defs>
 <g id="Слой_x0020_1">
  <metadata id="CorelCorpID_0Corel-Layer"/>
  <path class="fil0" d="M42400 16500l0 2100 48100 -2100 0 -9600 -48100 9600zm28900 18000l-6000 12500 -1100 2300 -2500 -500 -4500 -1000 -14800 10200 -9800 -9700 0 19900 1600 40800 -10000 0 -2200 -34800 -4500 0 -1800 34800 -10700 0 2400 -40800c-2500,-1800 -4900,-3700 -7400,-5500l5600 -30300c31100,0 -2800,0 28400,0l9100 13800 6700 -1900 0 -300 -2000 -14700 -10700 -2400 0 -13000 58600 -13900 0 40000 -24400 -5500zm-17000 -3700l1500 10300 4800 1000 4300 -9000 -10600 -2300zm-35000 -24700c-6400,0 -11600,5200 -11600,11600 0,6500 5200,11700 11600,11700 6400,0 11700,-5200 11700,-11700 0,-6400 -5300,-11600 -11700,-11600l0 0z"/>
 </g>
</svg>
