<?xml version="1.0" encoding="UTF-8"?>
<!DOCTYPE svg PUBLIC "-//W3C//DTD SVG 1.1//EN" "http://www.w3.org/Graphics/SVG/1.1/DTD/svg11.dtd">
<!-- Creator: CorelDRAW -->
<svg xmlns="http://www.w3.org/2000/svg" xml:space="preserve" width="100px" height="100px" version="1.1" style="shape-rendering:geometricPrecision; text-rendering:geometricPrecision; image-rendering:optimizeQuality; fill-rule:evenodd; clip-rule:evenodd"
viewBox="0 0 10200 10200"
 xmlns:xlink="http://www.w3.org/1999/xlink"
 xmlns:xodm="http://www.corel.com/coreldraw/odm/2003">
 <defs>
  <style type="text/css">
   <![CDATA[
    .fil0 {fill:white}
   ]]>
  </style>
 </defs>
 <g id="Слой_x0020_1">
  <metadata id="CorelCorpID_0Corel-Layer"/>
  <path class="fil0" d="M5100 0c2800,0 5100,2300 5100,5100 0,2800 -2300,5100 -5100,5100 -2800,0 -5100,-2300 -5100,-5100 0,-2800 2300,-5100 5100,-5100zm-2600 5400c-200,-300 -100,-700 200,-900 200,-200 600,-100 800,100l900 1200 2200 -2800c200,-300 600,-400 900,-100 300,200 300,600 100,800l-2700 3500c0,0 -100,100 -100,100 -300,200 -700,200 -900,-100l-1400 -1800z"/>
 </g>
</svg>
