<?xml version="1.0" encoding="UTF-8"?>
<!DOCTYPE svg PUBLIC "-//W3C//DTD SVG 1.1//EN" "http://www.w3.org/Graphics/SVG/1.1/DTD/svg11.dtd">
<!-- Creator: CorelDRAW -->
<svg xmlns="http://www.w3.org/2000/svg" xml:space="preserve" width="238px" height="238px" version="1.1" style="shape-rendering:geometricPrecision; text-rendering:geometricPrecision; image-rendering:optimizeQuality; fill-rule:evenodd; clip-rule:evenodd"
viewBox="0 0 47800 47800"
 xmlns:xlink="http://www.w3.org/1999/xlink"
 xmlns:xodm="http://www.corel.com/coreldraw/odm/2003">
 <defs>
  <style type="text/css">
   <![CDATA[
    .fil0 {fill:#20C4F4}
   ]]>
  </style>
 </defs>
 <g id="Слой_x0020_1">
  <metadata id="CorelCorpID_0Corel-Layer"/>
  <path class="fil0" d="M35500 19800c-500,400 -2600,2600 -3300,3300 -1100,1100 -2200,2200 -3300,3400 -3400,3200 -6700,6700 -10000,9900 -1100,1100 -2100,2300 -3300,3400 -400,400 -200,400 -1000,600 -900,300 -7500,2200 -7700,2200l-1700 -1700c0,-300 1700,-5800 1900,-6500 200,-700 400,-1900 800,-2400 1200,-1100 2300,-2200 3400,-3300 3200,-3300 6700,-6600 10000,-9900 800,-800 6100,-6000 6600,-6600 -100,-300 -2200,-2400 -2500,-2500 -300,300 -600,600 -1000,1000l-7000 6900c-2600,2700 -5200,5300 -7900,7900l-4000 4000c-400,300 -700,400 -1000,1000 -200,300 -1200,4000 -1400,4600l-2700 9200c-300,1100 -800,2100 100,3000 900,900 1800,500 3000,100 4100,-1200 8400,-2400 12300,-3600 1300,-400 2100,-400 2600,-1500 100,-300 1700,-1800 1900,-2000l18000 -17800c-200,-300 -2600,-2600 -2800,-2700zm-8100 -12200c200,300 10000,10100 11100,11200 300,300 1400,1500 1700,1600 300,-200 500,-400 800,-700 400,-400 1800,-1600 2100,-2000 -300,-400 -1200,-1200 -1600,-1600l-4800 -4800c-1000,-1100 -2100,-2100 -3200,-3200 -500,-600 -1100,-1100 -1600,-1600 -300,-300 -1400,-1500 -1700,-1600l-2100 2000c-300,300 -500,500 -700,700zm5000 -4500c100,300 2600,2700 3000,3100 1100,1100 2000,2100 3100,3100 1000,1100 2100,2100 3100,3100 400,400 2900,3000 3100,3100 1000,-1400 3800,-2900 2900,-6100 -300,-1300 -1200,-2100 -1900,-2700l-4600 -4700c-600,-600 -1400,-1500 -2700,-1900 -1400,-300 -2800,0 -3700,700 -400,300 -800,800 -1200,1200 -400,400 -800,700 -1100,1100zm-22900 31500c300,200 2300,500 2900,700l400 2700c200,0 2400,-2300 2600,-2500l14000 -14000c300,-200 400,-400 700,-600l1900 -2000c300,-200 1200,-1100 1300,-1300 -200,-300 -3200,-3300 -3400,-3400l-17900 17900c-500,500 -2200,2200 -2500,2500z"/>
 </g>
</svg>
