<?xml version="1.0" encoding="UTF-8"?>
<!DOCTYPE svg PUBLIC "-//W3C//DTD SVG 1.1//EN" "http://www.w3.org/Graphics/SVG/1.1/DTD/svg11.dtd">
<!-- Creator: CorelDRAW -->
<svg xmlns="http://www.w3.org/2000/svg" xml:space="preserve" width="247px" height="175px" version="1.1" style="shape-rendering:geometricPrecision; text-rendering:geometricPrecision; image-rendering:optimizeQuality; fill-rule:evenodd; clip-rule:evenodd"
viewBox="0 0 133500 94600"
 xmlns:xlink="http://www.w3.org/1999/xlink"
 xmlns:xodm="http://www.corel.com/coreldraw/odm/2003">
 <defs>
  <style type="text/css">
   <![CDATA[
    .fil0 {fill:#34A9E0}
   ]]>
  </style>
 </defs>
 <g id="Слой_x0020_1">
  <metadata id="CorelCorpID_0Corel-Layer"/>
  <path class="fil0" d="M22600 13400l43500 37800 44500 -37800 -88000 0zm89900 67800l-29800 -30000 -13200 11200 -3500 3000 -3500 -3000 -13400 -11800 -28700 30600 92100 0zm-21700 -36900l29300 29300 0 -54100 -29300 24800zm-77400 28600l27600 -29300 -27600 -23900 0 53200zm-6700 -72900l120100 0 6700 0 0 6700 0 81200 0 6700 -6700 0 -120100 0 -6700 0 0 -6700 0 -81200 0 -6700 6700 0z"/>
 </g>
</svg>
