<?xml version="1.0" encoding="UTF-8"?>
<!DOCTYPE svg PUBLIC "-//W3C//DTD SVG 1.1//EN" "http://www.w3.org/Graphics/SVG/1.1/DTD/svg11.dtd">
<!-- Creator: CorelDRAW -->
<svg xmlns="http://www.w3.org/2000/svg" xml:space="preserve" width="929px" height="532px" version="1.1" style="shape-rendering:geometricPrecision; text-rendering:geometricPrecision; image-rendering:optimizeQuality; fill-rule:evenodd; clip-rule:evenodd"
viewBox="0 0 12623600 7224800"
 xmlns:xlink="http://www.w3.org/1999/xlink"
 xmlns:xodm="http://www.corel.com/coreldraw/odm/2003">
 <defs>
  <style type="text/css">
   <![CDATA[
    .fil0 {fill:#00C8FF;fill-rule:nonzero}
   ]]>
  </style>
 </defs>
 <g id="Слой_x0020_1">
  <metadata id="CorelCorpID_0Corel-Layer"/>
  <path class="fil0" d="M5356500 3207600l1346100 0 0 -306500 -47000 0 0 90700 -152900 -152900 152900 -152900 0 90800 47000 0 0 -328200 -1336600 0 0 379800 -9500 0 0 379200zm2932700 1518700l32600 0 0 20400 0 12200 0 20400 -32600 0 0 -20400 0 -12200 0 -20400zm0 65100l32600 0 0 20500 0 12100 0 20400 -32600 0 0 -20400 0 -12100 0 -20500zm0 65200l32600 0 0 20400 0 12100 0 20400 -32600 0 0 -20400 0 -12100 0 -20400zm0 65100l32600 0 0 20400 0 12100 0 20400 -32600 0 0 -20400 0 -12100 0 -20400zm0 65100l32600 0 0 20400 0 12100 0 20500 -32600 0 0 -20500 0 -12100 0 -20400zm0 65100l32600 0 0 20400 0 12200 0 20400 -32600 0 0 -20400 0 -12200 0 -20400zm0 65100l32600 0 0 20400 0 12200 0 20400 -32600 0 0 -20400 0 -12200 0 -20400zm0 65100l32600 0 0 20400 0 12200 0 20400 -32600 0 0 -20400 0 -12200 0 -20400zm0 65200l32600 0 0 20400 0 12100 0 20400 -32600 0 0 -20400 0 -12100 0 -20400zm0 65100l32600 0 0 20400 0 12100 0 20400 -32600 0 0 -20400 0 -12100 0 -20400zm0 65100l32600 0 0 20400 0 12100 0 20400 -32600 0 0 -20400 0 -12100 0 -20400zm0 65100l32600 0 0 20400 0 3600 1049000 0 0 100100 -1026400 0 0 1194600 1112000 0 0 -562900 100100 0 0 344300 1093300 0 0 218600 480300 0 0 -1194600 -874000 0 -560000 538100c-9100,8700 -23600,8400 -32300,-700 -8800,-9100 -8500,-23600 600,-32400l571300 -549000 0 -56100 894400 0 100000 0 0 100100 0 1248100 15300 0 0 309900 1061100 0 -67900 -744200 136600 -12500 -380400 -2959100 -281200 0 0 -64000 177300 0 -54100 -593600 -978200 0 0 593600 463000 0 0 64000 -91500 0 0 1355200 -36900 0 0 29800 -32500 0 0 -29800 -30600 0 0 -64100 -833900 0 0 -44200 -31900 0c-6800,0 -12800,-2900 -17000,-7600l-582900 -560100c-9100,-8800 -9400,-23300 -600,-32400 8700,-9100 23200,-9400 32300,-600l577400 554800 22700 0 0 -10000 833900 0 0 -1179900 -31200 -1500 500 -9600 -32600 0 -400 8000 -32500 -1700 300 -6300 -32600 0 -200 4700 -32500 -1600 100 -3100 -32600 0 0 1400 -28900 -1400 -285900 0 0 -64000 0 0 0 -166400 -526900 0 0 151400 -538200 0 0 583100 -100100 0 0 -583100 -982800 0 0 100 -129200 0 0 1269900 1026400 0 0 100100 -1026400 0 0 0 -22600 0 0 14200 -32600 0 0 -14200 -44900 0 0 -1370000 -7700 0 0 -100 0 -21500 -699100 0c-1400,0 -2800,-200 -4000,-700l-2414000 0 0 -18800 0 -81300 0 -302100 -329100 0 0 -203800 0 -33200 0 -245800 -2249700 0 0 -34000 -12000 0 0 -32600 12000 0 0 -2500 -51300 0c-6800,0 -12900,-2900 -17100,-7600l-582800 -560100c-9200,-8800 -9400,-23300 -700,-32400 8800,-9100 23300,-9400 32400,-600l577400 554800 43300 0c9800,0 18300,6200 21500,15000l2227000 0 0 -1950600 -547600 0 0 -135100 -2944600 0 0 172000 -1061200 0 0 1913700 1402500 0 0 33400 10100 0 0 32600 -10100 0 0 34000 -169300 0 0 817400 505200 752300 -82600 56400 -519300 -773200 -3400 0 0 -5000 -2000 -3000 2000 -1400 0 -843500 -1133100 0 0 734900 -78900 0 0 2778300 78900 0 0 1188800 2018800 0 0 -2311400 100100 0 0 2311400 2444700 0 0 -561400 0 -1696500 -20300 0 0 -32500 20300 0 0 -21000 42900 0 0 -19000 32500 0 0 19000 24600 0 0 1750000 465400 0 0 561400 2868300 0 0 -309900 10000 0 0 -53500 0 -1271800 41700 0 0 -22900 3200 0 0 -3600 0 -20400zm2871500 -30100l32500 0 0 32600 -32500 0 0 -32600zm0 -65100l32500 0 0 32600 -32500 0 0 -32600zm0 -65100l32500 0 0 32600 -32500 0 0 -32600zm0 -65100l32500 0 0 32500 -32500 0 0 -32500zm0 -65100l32500 0 0 32500 -32500 0 0 -32500zm0 -65100l32500 0 0 32500 -32500 0 0 -32500zm0 -65200l32500 0 0 32600 -32500 0 0 -32600zm0 -65100l32500 0 0 32600 -32500 0 0 -32600zm0 -65100l32500 0 0 32600 -32500 0 0 -32600zm0 -65100l32500 0 0 32500 -32500 0 0 -32500zm-4435200 -1618900l205300 0 0 -306500 -205300 0 0 306500zm228300 0l159400 0 52600 -306500 -212000 0 0 306500zm182700 0l116200 0 441800 -759000 -427900 0 -70400 410500 0 42000 -7200 0 -52500 306500zm142700 0l110400 0 847000 -745700 0 -13300 -515500 0 -441900 759000zm145200 0l93000 0 719200 -322300 0 -392800 -812200 715100zm126400 10200l0 67600 5900 0 0 -10400 32500 0 0 10400 32600 0 0 -10400 32500 0 0 10400 32600 0 0 -10400 32600 0 0 10400 32500 0 0 -10400 32600 0 0 10400 32500 0 0 -10400 32600 0 0 10400 32600 0 0 -10400 32500 0 0 10400 32600 0 0 -10400 32500 0 0 10400 32600 0 0 -10400 32500 0 0 10400 32600 0 0 -10400 32600 0 0 10400 32500 0 0 -10400 32600 0 0 10400 32500 0 0 -10400 28800 0 0 -182100 0 -182500 -685800 307400zm-2431300 -1006200l246500 0 3107600 0 0 237000 0 0 0 644300 1559400 0 0 -151400 588600 0 0 -190200 0 -207400 0 -29600 1374900 0 0 5200 56700 -5200 71100 779500 93300 -8500 406000 3157200 -140200 12800 68300 747900 -152600 14000 0 7600 -83500 0 -12315600 0 0 -61600 0 -38500 0 -1188800 28700 0 0 -2778300 -28700 0 0 -2748600 0 -237000 237000 0 990600 0 0 -172000 3015200 0 547600 0 144100 0 92900 0 0 237000 0 1974600 92100 0zm2123800 237000l-289500 0 0 328200 233300 0 56200 -328200zm-312500 0l-205300 0 0 328200 205300 0 0 -328200zm-5248600 -92500l32600 0 0 32600 -32600 0 0 -32600zm65100 0l32600 0 0 32600 -32600 0 0 -32600zm65100 0l32600 0 0 32600 -32600 0 0 -32600zm65200 0l32500 0 0 32600 -32500 0 0 -32600zm65100 0l32500 0 0 32600 -32500 0 0 -32600zm65100 0l32500 0 0 32600 -32500 0 0 -32600zm65100 0l32600 0 0 32600 -32600 0 0 -32600zm65100 0l32600 0 0 32600 -32600 0 0 -32600zm65100 0l32600 0 0 32600 -32600 0 0 -32600zm65200 0l32500 0 0 32600 -32500 0 0 -32600zm65100 0l32500 0 0 32600 -32500 0 0 -32600zm65100 0l32500 0 0 32600 -32500 0 0 -32600zm65100 0l32600 0 0 32600 -32600 0 0 -32600zm2251600 2478200l32500 0 0 32500 -32500 0 0 -32500zm-65100 0l32500 0 0 32500 -32500 0 0 -32500zm-65200 0l32600 0 0 32500 -32600 0 0 -32500zm-65100 0l32600 0 0 32500 -32600 0 0 -32500zm-65100 0l32600 0 0 32500 -32600 0 0 -32500zm-65100 0l32500 0 0 32500 -32500 0 0 -32500zm-65100 0l32500 0 0 32500 -32500 0 0 -32500zm-65100 0l32500 0 0 32500 -32500 0 0 -32500zm-65200 0l32600 0 0 32500 -32600 0 0 -32500zm-65100 0l32600 0 0 32500 -32600 0 0 -32500zm-65100 0l32600 0 0 32500 -32600 0 0 -32500zm-65100 0l32500 0 0 32500 -32500 0 0 -32500zm-65100 0l32500 0 0 32500 -32500 0 0 -32500zm-65100 0l32500 0 0 32500 -32500 0 0 -32500zm-65200 0l32600 0 0 32500 -32600 0 0 -32500zm-65100 0l32600 0 0 32500 -32600 0 0 -32500zm-65100 0l32600 0 0 32500 -32600 0 0 -32500zm-65100 0l32500 0 0 32500 -32500 0 0 -32500zm-65100 0l32500 0 0 32500 -32500 0 0 -32500zm-65100 0l32500 0 0 32500 -32500 0 0 -32500zm-65100 0l32500 0 0 32500 -32500 0 0 -32500zm-65200 0l32600 0 0 32500 -32600 0 0 -32500zm-65100 0l32600 0 0 32500 -32600 0 0 -32500zm-65100 0l32600 0 0 32500 -32600 0 0 -32500zm-65100 0l32500 0 0 32500 -32500 0 0 -32500zm-65100 0l32500 0 0 32500 -32500 0 0 -32500zm-65100 0l32500 0 0 32500 -32500 0 0 -32500zm-65200 0l32600 0 0 32500 -32600 0 0 -32500zm-65100 0l32600 0 0 32500 -32600 0 0 -32500zm-65100 0l32600 0 0 32500 -32600 0 0 -32500zm-65100 0l32500 0 0 32500 -32500 0 0 -32500zm-65100 0l32500 0 0 32500 -32500 0 0 -32500zm-65100 0l32500 0 0 32500 -32500 0 0 -32500zm-65200 0l32600 0 0 32500 -32600 0 0 -32500zm-65100 0l32600 0 0 32500 -32600 0 0 -32500zm-65100 0l32600 0 0 32500 -32600 0 0 -32500zm-65100 0l32500 0 0 32500 -32500 0 0 -32500zm-2247000 -1676700l-61200 0 0 2778300 61200 0 0 -2778300zm4719500 1571600l32500 0 0 32600 -32500 0 0 -32600zm0 -65100l32500 0 0 32600 -32500 0 0 -32600zm0 -65100l32500 0 0 32500 -32500 0 0 -32500zm0 -65100l32500 0 0 32500 -32500 0 0 -32500zm0 -65100l32500 0 0 32500 -32500 0 0 -32500zm0 -65200l32500 0 0 32600 -32500 0 0 -32600zm0 -65100l32500 0 0 32600 -32500 0 0 -32600zm0 -65100l32500 0 0 32600 -32500 0 0 -32600zm0 -65100l32500 0 0 32500 -32500 0 0 -32500zm0 -65100l32500 0 0 32500 -32500 0 0 -32500zm0 -65200l32500 0 0 32600 -32500 0 0 -32600zm0 -65100l32500 0 0 32600 -32500 0 0 -32600zm0 -65100l32500 0 0 32600 -32500 0 0 -32600zm0 -65100l32500 0 0 32600 -32500 0 0 -32600zm0 -65100l32500 0 0 32500 -32500 0 0 -32500zm0 -65100l32500 0 0 32500 -32500 0 0 -32500zm0 -65100l32500 0 0 32500 -32500 0 0 -32500zm0 -65200l32500 0 0 32600 -32500 0 0 -32600zm0 -65100l32500 0 0 32600 -32500 0 0 -32600zm0 -65100l32500 0 0 32500 -32500 0 0 -32500zm0 -65100l32500 0 0 32600 -32500 0 0 -32600zm0 -65100l32500 0 0 32500 -32500 0 0 -32500zm0 -65200l32500 0 0 32600 -32500 0 0 -32600zm43400 -21600l32600 0 0 32500 -32600 0 0 -32500zm65100 0l32600 0 0 32500 -32600 0 0 -32500zm65100 0l32600 0 0 32500 -32600 0 0 -32500zm65200 0l32500 0 0 32500 -32500 0 0 -32500z"/>
 </g>
</svg>
