<?xml version="1.0" encoding="UTF-8"?>
<!DOCTYPE svg PUBLIC "-//W3C//DTD SVG 1.1//EN" "http://www.w3.org/Graphics/SVG/1.1/DTD/svg11.dtd">
<!-- Creator: CorelDRAW -->
<svg xmlns="http://www.w3.org/2000/svg" xml:space="preserve" width="299px" height="350px" version="1.1" style="shape-rendering:geometricPrecision; text-rendering:geometricPrecision; image-rendering:optimizeQuality; fill-rule:evenodd; clip-rule:evenodd"
viewBox="0 0 130700 153200"
 xmlns:xlink="http://www.w3.org/1999/xlink"
 xmlns:xodm="http://www.corel.com/coreldraw/odm/2003">
 <defs>
  <style type="text/css">
   <![CDATA[
    .fil0 {fill:#00C8FF}
   ]]>
  </style>
 </defs>
 <g id="Слой_x0020_1">
  <metadata id="CorelCorpID_0Corel-Layer"/>
  <path class="fil0" d="M31400 34300l4800 0c-300,-800 -500,-1800 -700,-2900 -100,100 -300,200 -400,200 -800,0 -1300,-900 -1300,-1900 0,-1000 500,-1800 1300,-1800 100,0 200,0 400,100 600,-6300 6700,-11300 14200,-11300 7700,0 13900,5100 14300,11600 200,-200 500,-400 800,-400 700,0 1300,800 1300,1800 0,1000 -600,1900 -1300,1900 -300,0 -700,-200 -900,-600 -100,1300 -300,2400 -700,3300l4800 0c1200,0 2100,1000 2100,2200l0 11500c0,0 0,100 0,200l5600 4300c1000,2300 1400,5800 800,9000 -200,700 -400,1400 -600,2100 0,100 -100,200 -200,300 -3200,-1000 -6200,-2400 -9100,-3900 500,8400 100,17400 -300,20900 400,9800 200,19600 -900,29400 -2300,1400 -6100,2000 -9600,1500 -800,-200 -1500,-300 -2100,-600 -500,-100 -900,-300 -1300,-500 -700,-7600 -1400,-15000 -2200,-22100l-200 0c-800,6900 -1400,14000 -2200,21400 0,0 0,0 0,0 -2200,1600 -6300,2400 -10100,1800 -700,-200 -1400,-300 -2100,-600 -200,0 -500,-100 -700,-200 -1200,-9700 -1400,-19300 -1100,-29000 -800,-7300 -900,-18100 -300,-26600l-17200 -5100c200,-300 400,-500 600,-800 2000,-2600 3300,-5900 3700,-8700l8700 900 0 -5200c0,-1200 1000,-2200 2100,-2200zm13100 -10200c1000,-600 2200,-500 2800,300 900,1300 300,2100 -700,2800 -1000,600 -1900,1000 -2800,-300 -600,-800 -300,-2100 700,-2800zm5200 -4000c5700,0 10200,4000 10200,8800 0,7500 -4500,8800 -10200,8800 -5600,0 -10200,-1300 -10200,-8700 0,-4900 4600,-8900 10200,-8900zm28400 32300l10900 -7900c600,-3200 2100,-5100 4300,-5500l0 -39000 2100 0 0 2900c19000,-6800 13100,17800 35300,300 0,10300 0,20600 0,30900 -22900,18200 -16900,-16800 -35300,-700l0 5500c100,0 300,0 400,100 100,700 200,1400 200,2100 1200,300 2300,1400 2700,2900 600,2000 -300,3900 -1800,4300 -500,100 -1000,100 -1500,-100l0 103300 -2100 0 0 -102000c-300,200 -800,400 -1300,600l-13400 12500c100,-200 100,-400 200,-700 600,-3200 300,-6800 -700,-9500zm-13100 60600l-100 700 -500 27600c-100,0 -300,0 -400,100 -800,200 -1600,500 -2300,900 -2500,1200 -4300,3100 -5300,5300 -1500,-11600 -2700,-23100 -3800,-34300 100,100 200,100 300,100 800,300 1600,500 2500,600 3300,600 6900,100 9600,-1000zm700 30300c5000,1400 6500,4800 6500,8900 -4900,1600 -9700,1200 -14200,-1200 0,-2600 1800,-5200 4700,-6700 600,-200 1200,-500 1900,-700 400,-100 700,-200 1100,-300zm-18100 -30500c-1100,11200 -2300,22700 -3800,34300 -1000,-1900 -2800,-3700 -5000,-4800 -700,-400 -1500,-700 -2300,-900 -200,-100 -500,-200 -800,-200l-500 -27500 0 -200c700,300 1400,400 2100,500 3600,600 7500,100 10300,-1200zm-5100 38000c-4600,2600 -9500,3000 -14500,1400 -100,-4200 1400,-7500 6600,-8900 400,100 900,200 1300,300 600,200 1300,500 1800,700 2900,1500 4700,4000 4800,6500zm-28100 -101900l-7900 -17000c-1700,-300 -3300,-1000 -5000,-3600 -1800,-2600 -2200,-7000 -100,-8400 2100,-1400 5200,-200 7400,2600 200,-1400 600,-2500 1500,-2600 900,-100 2000,2100 2100,3800 100,1700 -100,2200 -400,3000l6400 12700c-100,2600 -1300,6100 -3300,8700 -200,300 -400,600 -700,800zm28800 3800l15500 0c700,0 1200,600 1200,1300l0 6800c0,700 -500,1300 -1200,1300l-15500 0c-700,0 -1300,-600 -1300,-1300l0 -6800c0,-700 600,-1300 1300,-1300zm-11400 -10700l4600 500c100,-100 100,-200 200,-200 600,-100 1600,-200 2900,-200l0 -3200c-800,-500 -1500,-1200 -2100,-2100l-3700 0c-1000,0 -1900,800 -1900,1700l0 3500zm30200 -5200c-700,900 -1400,1600 -2300,2200l0 3400c1200,100 2200,100 2900,100 100,0 200,100 200,200l0 -200 4800 3700 0 -7700c0,-900 -900,-1700 -1900,-1700l-3700 0z"/>
 </g>
</svg>
