<?xml version="1.0" encoding="UTF-8"?>
<!DOCTYPE svg PUBLIC "-//W3C//DTD SVG 1.1//EN" "http://www.w3.org/Graphics/SVG/1.1/DTD/svg11.dtd">
<!-- Creator: CorelDRAW -->
<svg xmlns="http://www.w3.org/2000/svg" xml:space="preserve" width="189px" height="247px" version="1.1" style="shape-rendering:geometricPrecision; text-rendering:geometricPrecision; image-rendering:optimizeQuality; fill-rule:evenodd; clip-rule:evenodd"
viewBox="0 0 492000 643900"
 xmlns:xlink="http://www.w3.org/1999/xlink"
 xmlns:xodm="http://www.corel.com/coreldraw/odm/2003">
 <defs>
  <style type="text/css">
   <![CDATA[
    .fil0 {fill:#00C8FF;fill-rule:nonzero}
   ]]>
  </style>
 </defs>
 <g id="Слой_x0020_1">
  <metadata id="CorelCorpID_0Corel-Layer"/>
  <path class="fil0" d="M0 12500l0 1500 24200 -14000 -2600 0 -21600 12500zm0 20300l0 1500 59500 -34300 -2600 0 -56900 32800zm0 20400l0 1500 94800 -54700 -2700 0 -92100 53200zm0 20400l0 1500 130000 -75100 -2600 0 -127400 73600zm0 20300l0 1500 165300 -95400 -2600 0 -162700 93900zm0 20000l0 1600 200000 -115500 -2600 0 -197400 113900zm0 20400l0 1500 235300 -135800 -2700 0 -232600 134300zm0 20400l0 1500 270500 -156200 -2600 0 -267900 154700zm0 20300l0 1500 304400 -175700 -500 -800 -700 0 -303200 175000zm0 20400l0 1500 339600 -196100 -400 -800 -800 0 -338400 195400zm0 20300l0 1600 374900 -216500 -500 -800 -700 0 -373700 215700zm0 20400l0 1500 410200 -236800 -500 -800 -700 0 -409000 236100zm0 20400l0 1500 445400 -257200 -400 -800 -800 0 -444200 256500zm0 20300l0 1600 468500 -270500 0 -1600 -468500 270500zm0 20400l0 1500 468500 -270500 0 -1500 -468500 270500zm0 20400l0 1500 468500 -270500 0 -1600 -468500 270600zm0 20300l0 1500 468600 -270500 0 -1500 -468600 270500zm0 20400l0 1500 468600 -270500 0 -1600 -468600 270600zm0 20300l0 1600 468600 -270600 0 -1500 -468600 270500zm0 20400l0 1500 468600 -270500 0 -1600 -468600 270600zm0 20400l0 1500 468600 -270600 0 -1500 -468600 270600zm0 20300l0 1500 468600 -270500 0 -1600 -468600 270600zm0 19800l0 1500 468700 -270600 0 -1500 -468700 270600zm0 20300l0 1500 468700 -270600 0 -1500 -468700 270600zm0 20400l0 1500 468700 -270600 0 -1500 -468700 270600zm0 20300l0 1600 468700 -270700 0 -1500 -468700 270600zm0 20400l0 1500 468700 -270600 0 -1500 -468700 270600zm0 20400l0 1500 468800 -270700 0 -1500 -468800 270700zm0 20300l0 1500 469700 -271100 -100 -1500 -469600 271100zm0 20400l0 1500 471000 -271900 -100 -1500 -470900 271900zm0 20400l0 1500 472300 -272700 -100 -1500 -472200 272700zm0 20300l0 1200 600 0 473100 -273100 -100 -1500 -473600 273400zm33200 1200l2700 0 439100 -253500 -100 -1500 -441700 255000zm35300 0l2600 0 405200 -233900 -100 -1500 -407700 235400zm35300 0l2600 0 371200 -214300 -100 -1500 -373700 215800zm35200 0l2700 0 337200 -194700 -100 -1500 -339800 196200zm35300 0l2600 0 303300 -175100 -100 -1500 -305800 176600zm35300 0l2600 0 269400 -155500 -100 -1500 -271900 157000zm35200 0l2700 0 235400 -135900 -100 -1500 -238000 137400zm34700 0l2700 0 202000 -116600 -100 -1500 -204600 118100zm35300 0l2600 0 168100 -97000 -100 -1500 -170600 98500zm35300 0l2600 0 134100 -77400 -100 -1500 -136600 78900zm35200 0l2700 0 100100 -57800 -100 -1500 -102700 59300zm35300 0l2600 0 66200 -38200 -100 -1500 -68700 39700zm35300 0l2600 0 32300 -18600 -100 -1500 -34800 20100zm35200 0l900 0 0 -500 -900 500z"/>
 </g>
</svg>
