<?xml version="1.0" encoding="UTF-8"?>
<!DOCTYPE svg PUBLIC "-//W3C//DTD SVG 1.1//EN" "http://www.w3.org/Graphics/SVG/1.1/DTD/svg11.dtd">
<!-- Creator: CorelDRAW -->
<svg xmlns="http://www.w3.org/2000/svg" xml:space="preserve" width="80px" height="274px" version="1.1" style="shape-rendering:geometricPrecision; text-rendering:geometricPrecision; image-rendering:optimizeQuality; fill-rule:evenodd; clip-rule:evenodd"
viewBox="0 0 173200 594400"
 xmlns:xlink="http://www.w3.org/1999/xlink"
 xmlns:xodm="http://www.corel.com/coreldraw/odm/2003">
 <defs>
  <style type="text/css">
   <![CDATA[
    .fil0 {fill:#00C8FF;fill-rule:nonzero}
   ]]>
  </style>
 </defs>
 <g id="Слой_x0020_1">
  <metadata id="CorelCorpID_0Corel-Layer"/>
  <path class="fil0" d="M0 60600l0 1200 12600 -7300 -500 -900 -12100 7000zm200 16800l0 1300 102800 -59300 -100 -600 -300 -500 -102400 59100zm300 16900l0 1200 104700 -60400 -200 -1200 -104500 60400zm200 16800l0 1300 106700 -61600 -200 -1200 -106500 61500zm200 16900l0 1200 108700 -62700 -200 -1200 -108500 62700zm300 16800l0 1300 110600 -63900 -200 -1100 -110400 63700zm200 16900l0 1200 112600 -64900 -200 -1200 -112400 64900zm200 16800l0 1300 114600 -66100 -200 -1200 -114400 66000zm300 16900l0 1300 116500 -67300 -200 -1200 -116300 67200zm200 16300l0 1300 118400 -68400 -200 -1100 -118200 68200zm200 16900l0 1200 120400 -69500 -200 -1100 -120200 69400zm200 16800l100 1300 122300 -70600 -200 -1200 -122200 70500zm300 16900l0 1200 124300 -71700 -200 -1200 -124100 71700zm200 16800l0 1300 126300 -72900 -200 -1200 -126100 72800zm200 16900l100 1300 128200 -74100 -200 -1200 -128100 74000zm900 16500l100 1200 129500 -74800 -200 -1100 -129400 74700zm1100 16400l0 1200 130700 -75400 -200 -1200 -130500 75400zm1000 16300l100 1200 128600 -74200 -600 -900 -128100 73900zm1100 16400l100 1200 129800 -74900 -500 -1000 -129400 74700zm1100 16400l100 1200 131100 -75700 -600 -1000 -130600 75500zm1100 16300l0 1200 133600 -77100 -500 -900 -133100 76800zm1000 16400l100 1200 136300 -78700 -200 -1100 -136200 78600zm1100 16400l100 1200 137400 -79300 -200 -1200 -137300 79300zm1100 16300l100 1200 138500 -79900 -200 -1200 -138400 79900zm1100 16400l100 1200 139600 -80600 -200 -1200 -139500 80600zm1000 16400l100 1200 140800 -81300 -200 -1200 -140700 81300zm1100 16100l100 1200 141800 -81900 -100 -1200 -141800 81900zm1100 16300l100 1200 142900 -82500 -100 -1200 -142900 82500zm1100 16400l0 1200 144100 -83200 -100 -1200 -144000 83200zm1000 16400l100 1200 145200 -83900 -100 -1100 -145200 83800zm1100 16300l100 1200 146300 -84500 -100 -1100 -146300 84400zm1100 16400l100 1200 147400 -85100 -100 -1200 -147400 85100zm1100 16300l0 1300 148600 -85800 -100 -1200 -148500 85700zm24000 3700l1200 0 125600 -72500 -100 -1200 -126900 73300 200 400zm29500 200l900 0 89500 -51700 -600 -900 -90100 52000 300 600zm29500 100l500 0 62400 -36000 -600 -900 -62700 36200 400 700zm65500 -3500l100 -1300 -2600 1500 600 900 1900 -1100zm-148500 -543300l76900 -44300 500 900 -76900 44400 -500 -1000zm0 -17000l53100 -30600 500 1000 -53100 30600 -500 -1000zm0 -16900l23700 -13700 500 1000 -23700 13600 -500 -900zm113600 579100l33700 -19500 500 1000 -33700 19500 -500 -1000z"/>
 </g>
</svg>
