<?xml version="1.0" encoding="UTF-8"?>
<!DOCTYPE svg PUBLIC "-//W3C//DTD SVG 1.1//EN" "http://www.w3.org/Graphics/SVG/1.1/DTD/svg11.dtd">
<!-- Creator: CorelDRAW -->
<svg xmlns="http://www.w3.org/2000/svg" xml:space="preserve" width="273px" height="367px" version="1.1" style="shape-rendering:geometricPrecision; text-rendering:geometricPrecision; image-rendering:optimizeQuality; fill-rule:evenodd; clip-rule:evenodd"
viewBox="0 0 195300 263100"
 xmlns:xlink="http://www.w3.org/1999/xlink"
 xmlns:xodm="http://www.corel.com/coreldraw/odm/2003">
 <defs>
  <style type="text/css">
   <![CDATA[
    .fil0 {fill:#00C8FF}
   ]]>
  </style>
 </defs>
 <g id="Слой_x0020_1">
  <metadata id="CorelCorpID_0Corel-Layer"/>
  <path class="fil0" d="M148800 69700c4300,10900 -3300,43900 -5600,55700 -4700,23900 -16100,40100 -39300,27100 -24400,-13700 -17800,-30600 600,-47200 14800,-13400 30400,-23900 44300,-35600zm-2000 142100c-8000,17500 -24700,34600 -30000,51300l10100 -4100c5200,-7400 55900,-36100 68400,-45700 -5000,-16400 -20700,-29900 -28100,-45900 -4500,-9800 7000,-43500 9300,-56200 6500,-36000 12300,-76500 15100,-111200 -24300,6600 -125800,102800 -132600,103900 -13700,2300 -40900,-4700 -55400,-1300 -1500,12600 -5200,81700 -2800,90700 24100,-38900 14600,-48100 47200,-54000 10600,29200 -9100,23200 33200,47700 40200,23200 27500,14800 59900,6300 2100,5800 3800,14200 5700,18500zm-103300 -1800l16100 -19600c6000,-13300 1800,-1600 900,-8600 -9600,-2100 -8400,-200 -12600,10800 -3100,8000 -4700,10700 -4400,17400zm39800 23200c17600,-18100 23100,-21400 14800,-29600 -2800,1300 -3300,-5700 -10400,13600 -1900,5400 -4000,11600 -4400,16000zm-31400 5800c8700,-5700 39900,-38200 28300,-46200 -13700,-9500 -24600,35200 -28300,46200zm47400 -103400l19800 11100c6400,-5800 10500,-13400 13300,-22100l-21500 -11700 -11600 22700z"/>
 </g>
</svg>
