<?xml version="1.0" encoding="UTF-8"?>
<!DOCTYPE svg PUBLIC "-//W3C//DTD SVG 1.1//EN" "http://www.w3.org/Graphics/SVG/1.1/DTD/svg11.dtd">
<!-- Creator: CorelDRAW -->
<svg xmlns="http://www.w3.org/2000/svg" xml:space="preserve" width="81px" height="48px" version="1.1" style="shape-rendering:geometricPrecision; text-rendering:geometricPrecision; image-rendering:optimizeQuality; fill-rule:evenodd; clip-rule:evenodd"
viewBox="0 0 96500 57000"
 xmlns:xlink="http://www.w3.org/1999/xlink"
 xmlns:xodm="http://www.corel.com/coreldraw/odm/2003">
 <defs>
  <style type="text/css">
   <![CDATA[
    .fil0 {fill:#00C8FF;fill-rule:nonzero}
   ]]>
  </style>
 </defs>
 <g id="Слой_x0020_1">
  <metadata id="CorelCorpID_0Corel-Layer"/>
  <path class="fil0" d="M0 1500l0 700 3800 -2200 -1200 0 -2600 1500zm0 9400l0 700 20000 -11600 -1200 0 -18800 10900zm0 9300l0 700 36200 -20900 -1200 0 -35000 20200zm0 9400l0 700 52400 -30300 -1200 0 -51200 29600zm0 9300l0 700 68600 -39600 -1200 0 -67400 38900zm0 9400l0 600 84800 -48900 -1200 0 -83600 48300zm1800 8700l200 0 94300 -54400 0 -700 -94700 54600 200 500zm16200 0l200 0 78100 -45100 0 -700 -78600 45300 300 500zm16200 0l200 0 62000 -35800 0 -700 -62500 36000 300 500zm16200 0l200 0 45800 -26500 0 -700 -46300 26700 300 500zm16200 0l200 0 29700 -17200 0 -400 -200 -200 -30000 17300 300 500zm16100 0l300 0 13500 -7800 0 -400 -200 -200 -13800 7900 200 500z"/>
 </g>
</svg>
