<?xml version="1.0" encoding="UTF-8"?>
<!DOCTYPE svg PUBLIC "-//W3C//DTD SVG 1.1//EN" "http://www.w3.org/Graphics/SVG/1.1/DTD/svg11.dtd">
<!-- Creator: CorelDRAW -->
<svg xmlns="http://www.w3.org/2000/svg" xml:space="preserve" width="344px" height="439px" version="1.1" style="shape-rendering:geometricPrecision; text-rendering:geometricPrecision; image-rendering:optimizeQuality; fill-rule:evenodd; clip-rule:evenodd"
viewBox="0 0 165800 211300"
 xmlns:xlink="http://www.w3.org/1999/xlink"
 xmlns:xodm="http://www.corel.com/coreldraw/odm/2003">
 <defs>
  <style type="text/css">
   <![CDATA[
    .fil0 {fill:#00C8FF}
   ]]>
  </style>
 </defs>
 <g id="Слой_x0020_1">
  <metadata id="CorelCorpID_0Corel-Layer"/>
  <path class="fil0" d="M55600 49900l58500 0 0 -7700 -58500 0 0 7700zm5400 21700l47700 0 0 -7700 -47700 0 0 7700zm-9800 -41500l67300 0 0 -7800 -67300 0 0 7800zm-31100 68700c5200,-1300 9300,-4800 9000,-10600l-29100 0c300,5800 4800,9300 10200,10700 500,8800 2100,16300 4700,22600 2800,7100 6800,12900 11500,17500l7000 -7100c-3800,-3800 -7000,-8400 -9300,-14100 -2100,-5200 -3500,-11500 -4000,-19000l0 0zm125500 0c-400,7500 -1800,13800 -3900,19000 -2300,5700 -5500,10300 -9300,14100l6900 7100c4800,-4600 8700,-10400 11600,-17500 2500,-6300 4100,-13800 4700,-22600 5400,-1400 9900,-4900 10200,-10700l-29200 0c-200,5800 3800,9300 9000,10600l0 0zm-60900 93600c4900,300 8800,4400 8800,9400 0,5200 -4200,9500 -9400,9500 -5300,0 -9500,-4200 -9500,-9500 0,-5000 4000,-9100 8900,-9400l-300 0c-13000,0 -25500,2100 -37600,6000 400,1100 600,2200 600,3400 0,5200 -4200,9500 -9500,9500 -5200,0 -9400,-4200 -9400,-9500 0,-3600 2000,-6700 4900,-8300l-1500 -3700c14100,-5900 28900,-9400 44300,-10400l0 -32200c-11700,-500 -23300,-2000 -34800,-4700 0,-6200 0,-9100 0,-15300 28700,0 57300,0 86000,0 0,6200 0,9100 0,15300 -11600,2600 -23000,4100 -34400,4700l0 32200c15600,900 31800,4200 48500,10300l-1500 4300c2500,1700 4200,4500 4200,7800 0,5200 -4300,9500 -9500,9500 -5200,0 -9400,-4200 -9400,-9500 0,-1100 200,-2300 500,-3300 -13800,-4000 -27100,-6000 -39900,-6100zm-57400 -184000c36500,-10900 73400,-11500 110800,0 -2300,33300 -7100,62300 -14900,86300l-26800 0 0 21600 -25600 0 0 -21600 -27000 0c-7400,-24100 -13700,-51000 -16500,-86300z"/>
 </g>
</svg>
