<?xml version="1.0" encoding="UTF-8"?>
<!DOCTYPE svg PUBLIC "-//W3C//DTD SVG 1.1//EN" "http://www.w3.org/Graphics/SVG/1.1/DTD/svg11.dtd">
<!-- Creator: CorelDRAW -->
<svg xmlns="http://www.w3.org/2000/svg" xml:space="preserve" width="224px" height="107px" version="1.1" style="shape-rendering:geometricPrecision; text-rendering:geometricPrecision; image-rendering:optimizeQuality; fill-rule:evenodd; clip-rule:evenodd"
viewBox="0 0 1225000 584000"
 xmlns:xlink="http://www.w3.org/1999/xlink"
 xmlns:xodm="http://www.corel.com/coreldraw/odm/2003">
 <defs>
  <style type="text/css">
   <![CDATA[
    .fil0 {fill:#00C8FF;fill-rule:nonzero}
   ]]>
  </style>
 </defs>
 <g id="Слой_x0020_1">
  <metadata id="CorelCorpID_0Corel-Layer"/>
  <path class="fil0" d="M1100 310800l538200 -310800 1700 2900 -538200 310800 -1700 -2900zm200 -52200l447900 -258600 1700 2900 -447900 258600 -1700 -2900zm300 -52200l357400 -206400 1700 2900 -357500 206400 -1600 -2900zm200 -52200l183800 -106200 1700 2900 -183800 106200 -1700 -2900zm200 -52200l88600 -51200 1700 2900 -88600 51200 -1700 -2900zm1056000 482000l165400 -95400 1600 2900 -160300 92500 -6700 0zm-90200 0l255600 -147500 1600 2900 -250500 144600 -6700 0zm-90200 0l345800 -199600 1600 2900 -340600 196700 -6800 0zm-90100 0l435900 -251600 1600 2900 -430800 248700 -6700 0zm-90200 0l526100 -303700 1600 2900 -521000 300800 -6700 0zm-90200 0l616300 -355800 1600 3000 -611200 352800 -6700 0zm-90200 0l706500 -407800 1600 2900 -701300 404900 -6800 0zm-90100 0l796600 -459900 1600 2900 -791500 457000 -6700 0zm-90200 0l886800 -511900 1600 2900 -881700 509000 -6700 0zm-90200 0l977000 -564000 1600 2900 -971900 561100 -6700 0zm-90200 0l1011600 -584000 1700 2900 -1006500 581100 -6800 0zm-90100 0l1011500 -584000 1700 2900 -1006500 581100 -6700 0zm-66100 -13900l987500 -570100 1600 2900 -987400 570100 -1700 -2900zm200 -52200l897100 -517900 1700 2900 -897100 517900 -1700 -2900zm200 -52200l806700 -465700 1700 2900 -806700 465700 -1700 -2900zm300 -52200l716200 -413500 1700 2900 -716200 413600 -1700 -3000zm200 -52200l625900 -361300 1600 2900 -625800 361400 -1700 -3000zm1145800 222700l76700 -44200 1600 2900 -71600 41300 -6700 0z"/>
 </g>
</svg>
