<?xml version="1.0" encoding="UTF-8"?>
<!DOCTYPE svg PUBLIC "-//W3C//DTD SVG 1.1//EN" "http://www.w3.org/Graphics/SVG/1.1/DTD/svg11.dtd">
<!-- Creator: CorelDRAW -->
<svg xmlns="http://www.w3.org/2000/svg" xml:space="preserve" width="121px" height="110px" version="1.1" style="shape-rendering:geometricPrecision; text-rendering:geometricPrecision; image-rendering:optimizeQuality; fill-rule:evenodd; clip-rule:evenodd"
viewBox="0 0 239700 218100"
 xmlns:xlink="http://www.w3.org/1999/xlink"
 xmlns:xodm="http://www.corel.com/coreldraw/odm/2003">
 <defs>
  <style type="text/css">
   <![CDATA[
    .fil0 {fill:#00C8FF;fill-rule:nonzero}
   ]]>
  </style>
 </defs>
 <g id="Слой_x0020_1">
  <metadata id="CorelCorpID_0Corel-Layer"/>
  <path class="fil0" d="M0 192500l239700 -138400 0 1400 -239700 138400 0 -1400zm0 -18800l239700 -138400 0 1400 -239700 138400 0 -1400zm0 -18800l239700 -138400 0 1400 -239700 138400 0 -1400zm0 -18900l235600 -136000 2400 0 -238000 137400 0 -1400zm0 -18800l203000 -117200 2400 0 -205400 118600 0 -1400zm0 -18800l170400 -98400 2400 0 -172800 99800 0 -1400zm0 -18900l137800 -79500 2400 0 -140200 80900 0 -1400zm0 -18800l105100 -60700 2500 0 -107600 62100 0 -1400zm0 -18800l72500 -41900 2500 0 -75000 43300 0 -1400zm0 -18900l39900 -23000 2400 0 -42300 24400 0 -1400zm0 -18800l7300 -4200 2400 0 -9700 5600 0 -1400zm217400 212900l22300 -12900 0 1400 -21700 12500 -600 -1000zm-32600 0l54900 -31700 0 1400 -54300 31300 -600 -1000zm-32700 0l87600 -50600 0 1400 -86900 50200 -700 -1000zm-32600 0l120200 -69400 0 1400 -119600 69000 -600 -1000zm-32600 0l152800 -88200 0 1400 -152200 87800 -600 -1000zm-32600 0l185400 -107100 0 1400 -184800 106700 -600 -1000zm-32600 0l218000 -125900 0 1400 -217400 125500 -600 -1000zm-21700 -6300l239700 -138400 0 1400 -239700 138400 0 -1400z"/>
 </g>
</svg>
