<?xml version="1.0" encoding="UTF-8"?>
<!DOCTYPE svg PUBLIC "-//W3C//DTD SVG 1.1//EN" "http://www.w3.org/Graphics/SVG/1.1/DTD/svg11.dtd">
<!-- Creator: CorelDRAW -->
<svg xmlns="http://www.w3.org/2000/svg" xml:space="preserve" width="352px" height="483px" version="1.1" style="shape-rendering:geometricPrecision; text-rendering:geometricPrecision; image-rendering:optimizeQuality; fill-rule:evenodd; clip-rule:evenodd"
viewBox="0 0 149300 205100"
 xmlns:xlink="http://www.w3.org/1999/xlink"
 xmlns:xodm="http://www.corel.com/coreldraw/odm/2003">
 <defs>
  <style type="text/css">
   <![CDATA[
    .fil0 {fill:#00C8FF}
   ]]>
  </style>
 </defs>
 <g id="Слой_x0020_1">
  <metadata id="CorelCorpID_0Corel-Layer"/>
  <path class="fil0" d="M39600 87100l19400 -19000 12100 12900 -19400 19400 -12100 -13300zm6100 99400l26700 0c3200,3500 7800,5600 12900,5600 5100,0 9600,-2100 12800,-5600l24000 0 13700 18600 -101400 0 11300 -18600zm-28700 -69100l38400 0 0 7200 -38400 0 0 -7200zm-17000 20200l72300 0 0 10500 -33500 0c10600,9700 21000,15800 30800,19100 -1100,2300 -1700,4900 -1700,7600 0,1200 100,2500 400,3700 -14500,-4400 -29900,-13900 -45200,-30400l-23100 0 0 -10500zm101300 30400c8000,-2600 15100,-7200 20900,-13100 6200,-6400 10800,-14400 13500,-23000 5700,-18500 2200,-40200 -15300,-56700 2900,-2500 5000,-5900 5800,-9800 22500,19900 27200,46800 20100,69700 -3200,10300 -8800,19800 -16200,27500 -7400,7700 -16800,13500 -27400,16500 -200,100 -400,100 -600,200 300,-1500 600,-3000 600,-4500 0,-2500 -500,-4800 -1400,-6800zm-16000 -5400c6700,0 12100,5500 12100,12200 0,6700 -5400,12100 -12100,12100 -6700,0 -12100,-5400 -12100,-12100 0,-6700 5400,-12200 12100,-12200zm0 7700c2400,0 4400,2000 4400,4500 0,2400 -2000,4400 -4400,4400 -2500,0 -4500,-2000 -4500,-4400 0,-2500 2000,-4500 4500,-4500zm23800 -120400c6700,0 12100,5400 12100,12100 0,6700 -5400,12100 -12100,12100 -6700,0 -12100,-5400 -12100,-12100 0,-6700 5400,-12100 12100,-12100zm0 7700c2500,0 4500,1900 4500,4400 0,2500 -2000,4400 -4500,4400 -2400,0 -4400,-1900 -4400,-4400 0,-2500 2000,-4400 4400,-4400zm8900 -44200l13700 -13400 8500 9100 -13600 13700 -8600 -9400zm-59400 44200l23000 23400 11800 -11600c-1100,-2200 -1700,-4700 -1700,-7400 0,-9600 7800,-17400 17400,-17400 2800,0 5400,700 7700,1800l12100 -11900 -23400 -23000 -46900 46100z"/>
 </g>
</svg>
