<?xml version="1.0" encoding="UTF-8"?>
<!DOCTYPE svg PUBLIC "-//W3C//DTD SVG 1.1//EN" "http://www.w3.org/Graphics/SVG/1.1/DTD/svg11.dtd">
<!-- Creator: CorelDRAW -->
<svg xmlns="http://www.w3.org/2000/svg" xml:space="preserve" width="163px" height="184px" version="1.1" style="shape-rendering:geometricPrecision; text-rendering:geometricPrecision; image-rendering:optimizeQuality; fill-rule:evenodd; clip-rule:evenodd"
viewBox="0 0 311800 351700"
 xmlns:xlink="http://www.w3.org/1999/xlink"
 xmlns:xodm="http://www.corel.com/coreldraw/odm/2003">
 <defs>
  <style type="text/css">
   <![CDATA[
    .fil0 {fill:#00C8FF;fill-rule:nonzero}
   ]]>
  </style>
 </defs>
 <g id="Слой_x0020_1">
  <metadata id="CorelCorpID_0Corel-Layer"/>
  <path class="fil0" d="M292600 350700l19200 -11100 0 1400 -18600 10700 -600 -1000zm-292600 -157300l311800 -180000 0 1400 -311800 180000 0 -1400zm0 -18100l303600 -175300 2300 0 -305900 176600 0 -1300zm0 -18200l272100 -157100 2400 0 -274500 158500 0 -1400zm0 -18200l240600 -138900 2400 0 -243000 140300 0 -1400zm0 -18100l209200 -120800 2300 0 -211500 122100 0 -1300zm0 -18200l177700 -102600 2300 0 -180000 103900 0 -1300zm0 -18200l146200 -84400 2400 0 -148600 85800 0 -1400zm0 -18100l114800 -66300 2300 0 -117100 67600 0 -1300zm0 -18200l83300 -48100 2300 0 -85600 49400 0 -1300zm0 -18200l51800 -29900 2400 0 -54200 31300 0 -1400zm0 -18100l20400 -11800 2300 0 -22700 13100 0 -1300zm261700 338900l50100 -29000 0 1400 -49500 28600 -600 -1000zm-31500 0l81600 -47100 0 1300 -81000 46800 -600 -1000zm-31500 0l113100 -65300 0 1400 -112500 64900 -600 -1000zm-31400 0l144500 -83500 0 1400 -143900 83100 -600 -1000zm-31500 0l176000 -101600 0 1300 -175400 101300 -600 -1000zm-31500 0l207500 -119800 0 1400 -206900 119400 -600 -1000zm-31400 0l238900 -138000 0 1400 -238300 137600 -600 -1000zm-31500 0l270400 -156100 0 1300 -269800 155800 -600 -1000zm-31500 0l301900 -174300 0 1400 -301300 173900 -600 -1000zm-9900 -12500l311800 -180000 0 1400 -311800 180000 0 -1400zm0 -18100l311800 -180000 0 1300 -311800 180000 0 -1300zm0 -18200l311800 -180000 0 1400 -311800 179900 0 -1300zm0 -18200l311800 -180000 0 1400 -311800 180000 0 -1400zm0 -18100l311800 -180000 0 1300 -311800 180000 0 -1300zm0 -18200l311800 -180000 0 1300 -311800 180000 0 -1300zm0 -18200l311800 -180000 0 1400 -311800 180000 0 -1400zm0 -18100l311800 -180000 0 1300 -311800 180000 0 -1300z"/>
 </g>
</svg>
