<?xml version="1.0" encoding="UTF-8"?>
<!DOCTYPE svg PUBLIC "-//W3C//DTD SVG 1.1//EN" "http://www.w3.org/Graphics/SVG/1.1/DTD/svg11.dtd">
<!-- Creator: CorelDRAW -->
<svg xmlns="http://www.w3.org/2000/svg" xml:space="preserve" width="487px" height="490px" version="1.1" style="shape-rendering:geometricPrecision; text-rendering:geometricPrecision; image-rendering:optimizeQuality; fill-rule:evenodd; clip-rule:evenodd"
viewBox="0 0 201800 203100"
 xmlns:xlink="http://www.w3.org/1999/xlink"
 xmlns:xodm="http://www.corel.com/coreldraw/odm/2003">
 <defs>
  <style type="text/css">
   <![CDATA[
    .fil0 {fill:#00C8FF}
   ]]>
  </style>
 </defs>
 <g id="Слой_x0020_1">
  <metadata id="CorelCorpID_0Corel-Layer"/>
  <path class="fil0" d="M201800 156500l-42300 42400 -43600 -43500c-600,2400 -1600,4400 -3200,6000 -200,100 -300,200 -400,400l-100 0c-100,100 -300,300 -400,400l0 0c-300,200 -700,500 -1000,700l0 0c-200,100 -300,200 -500,300l0 0c-200,100 -400,200 -500,300l-100 0c-100,100 -300,200 -500,200l-100 100c-100,0 -300,100 -400,200l-200 0c-100,100 -300,100 -400,200l-200 0c-100,100 -300,100 -400,200l-200 0c-100,100 -300,100 -400,100 -100,0 -200,100 -300,100 -100,0 -200,0 -300,100 -100,0 -200,0 -300,0 -200,100 -300,100 -400,100 -100,0 -200,0 -300,0 -100,100 -200,100 -300,100 -100,0 -300,0 -400,0l-300 100c-100,0 -300,0 -500,0l-100 0c-200,0 -400,0 -600,0l-200 0c-100,0 -300,0 -500,0l0 0c-10800,0 -26100,-7600 -40100,-20700l-9800 9800c700,2500 100,5200 -1800,7100 -2800,2800 -7300,2800 -10100,100 -2800,-2800 -2800,-7400 0,-10200 1900,-1900 4600,-2500 7100,-1800l9800 -9800c-13000,-13900 -20500,-29100 -20600,-39800 0,-1200 100,-2300 300,-3400l0 -100c0,-100 100,-300 100,-500l100 -200c0,-100 0,-200 0,-300 100,-100 100,-300 100,-400 100,-100 100,-100 100,-200 0,-200 100,-300 100,-400l100 -200c0,-200 100,-300 100,-400l100 -200c100,-200 100,-300 200,-400l0 -200c100,-100 200,-300 200,-400l100 -100c100,-200 200,-300 200,-500l100 0c100,-200 200,-300 300,-500l0 -100c100,-100 200,-300 300,-400l0 0c100,-200 200,-300 400,-500l0 0c100,-200 200,-300 400,-500l0 0c100,-100 200,-300 400,-400 1600,-1600 3600,-2600 5900,-3200l-43800 -43800 42400 -42400 57600 57500 10100 -10100 41700 41700 -10100 10100 57400 57300zm-181100 -39800c700,-500 1600,-300 2200,400 500,700 300,1700 -400,2200l0 0c-800,600 -1500,1100 -2200,1700 -700,600 -1300,1200 -2000,1800 -3500,3200 -6400,6900 -8800,11100l0 0c-1800,3000 -3100,6200 -4200,9400 -1000,3200 -1600,6400 -1900,9600 -1700,16700 5800,33100 20500,41600l100 0c10200,5900 21900,6800 32700,3600 10800,-3200 20600,-10600 26800,-21500l0 0c500,-800 1400,-1000 2200,-600 700,500 1000,1400 600,2200l-100 0c-6600,11600 -17100,19500 -28600,22900 -11600,3500 -24200,2400 -35200,-3900l0 0c-15800,-9100 -23900,-26700 -22200,-44600 400,-3400 1100,-6900 2200,-10300 1000,-3400 2500,-6800 4400,-10000l0 0c2500,-4400 5700,-8400 9300,-11800 700,-700 1500,-1300 2200,-1900 800,-700 1600,-1300 2300,-1900l100 0zm7100 14000c700,-600 1700,-400 2200,300 500,700 400,1700 -300,2200l0 0c-500,300 -900,700 -1400,1100 -400,300 -800,700 -1300,1100 -2100,2000 -3900,4300 -5400,6900l0 0c-1100,1900 -1900,3900 -2500,5900 -600,2000 -1000,4100 -1200,6100 -800,10600 4200,21200 13700,26700 0,100 200,200 400,300l100 0c6400,3600 13700,4300 20300,2400 6600,-1800 12600,-6200 16500,-12700 0,-200 100,-300 300,-600 400,-700 1400,-1000 2100,-600 800,500 1000,1400 600,2200 -100,100 -200,300 -300,600 -4300,7200 -11000,12100 -18300,14200 -7400,2000 -15500,1300 -22700,-2700 0,0 -100,0 -100,0 -100,-100 -300,-200 -500,-400 -10600,-6200 -16100,-17900 -15200,-29600 200,-2300 600,-4600 1300,-6800 600,-2200 1600,-4400 2800,-6500l0 0c1600,-2900 3600,-5500 6000,-7700 500,-400 900,-900 1400,-1300 500,-400 1000,-800 1500,-1100l0 0zm7900 9300c700,-600 1700,-400 2200,300 500,700 400,1700 -300,2200l0 0c-400,200 -600,400 -800,600 -300,200 -500,500 -800,700 -1200,1200 -2300,2500 -3200,4000l0 0c-2300,4000 -2800,8400 -1900,12400 1000,4000 3400,7500 7100,9600l0 0c1000,600 2100,1100 3200,1400 1100,300 2200,500 3300,600 5900,300 11800,-2800 15100,-8500 400,-800 1400,-1000 2200,-600 700,400 1000,1400 500,2100 -3900,6800 -10900,10500 -17900,10100 -1400,-100 -2700,-300 -4100,-700 -1300,-400 -2600,-900 -3900,-1600l0 -100c-4500,-2500 -7400,-6800 -8500,-11500 -1200,-4800 -500,-10100 2200,-14700l0 0c1000,-1800 2300,-3400 3800,-4800 200,-300 500,-500 800,-800 400,-300 700,-500 1000,-700l0 0zm80200 6300c-800,-4200 -2400,-8800 -4900,-13700l28900 -28800 10600 10600 -33200 33200 -1400 -1300zm-46600 -55300c-4800,-2500 -9400,-4100 -13600,-4800l-1400 -1400 33200 -33300 10600 10600 -28800 28900zm7700 38600l-10100 10100c12600,11800 25800,19100 34400,19300 -3000,-10800 -11000,-23800 -22700,-35500 -11800,-11800 -24800,-19800 -35700,-22700 300,8500 7500,21600 19200,34100l10100 -10100 4800 4800zm-31700 -120200l-33200 33300 15200 15100 33200 -33200 -15200 -15200zm20000 20000l-33200 33300 17900 17800 33200 -33300 -17900 -17800zm127400 127100l-33200 33300 -15200 -15200 33200 -33300 15200 15200zm-20000 -20000l-33300 33300 -17800 -17800 33200 -33300 17900 17800z"/>
 </g>
</svg>
