<?xml version="1.0" encoding="UTF-8"?>
<!DOCTYPE svg PUBLIC "-//W3C//DTD SVG 1.1//EN" "http://www.w3.org/Graphics/SVG/1.1/DTD/svg11.dtd">
<!-- Creator: CorelDRAW -->
<svg xmlns="http://www.w3.org/2000/svg" xml:space="preserve" width="376px" height="425px" version="1.1" style="shape-rendering:geometricPrecision; text-rendering:geometricPrecision; image-rendering:optimizeQuality; fill-rule:evenodd; clip-rule:evenodd"
viewBox="0 0 92900 104800"
 xmlns:xlink="http://www.w3.org/1999/xlink"
 xmlns:xodm="http://www.corel.com/coreldraw/odm/2003">
 <defs>
  <style type="text/css">
   <![CDATA[
    .fil0 {fill:#00C8FF}
   ]]>
  </style>
 </defs>
 <g id="Слой_x0020_1">
  <metadata id="CorelCorpID_0Corel-Layer"/>
  <path class="fil0" d="M56600 77400c-1800,2200 -7700,11600 -8800,18700 -2000,12400 19400,10500 18000,900 -900,-6600 -6600,-16000 -9200,-19600zm-46300 -13200l33600 0 0 -3200 -37000 0c-1700,-3500 -1600,-7000 0,-10300l37000 0 0 -3300c-14200,0 -28500,0 -42700,0 -1700,-3500 -1500,-6900 0,-10300 14200,0 28500,0 42700,0l0 -3000c-19500,0 -20900,0 -34000,0 -1600,-3600 -1500,-7000 0,-10400 16600,0 31500,0 48200,0 -2900,-5600 -5600,-11500 -7700,-17000 1800,-3400 4600,-5600 8300,-6700l27100 24600c8400,12700 10400,37600 0,49900 -26900,0 -6700,0 -75500,0 -1600,-3500 -1500,-7000 0,-10300z"/>
 </g>
</svg>
