<?xml version="1.0" encoding="UTF-8"?>
<!DOCTYPE svg PUBLIC "-//W3C//DTD SVG 1.1//EN" "http://www.w3.org/Graphics/SVG/1.1/DTD/svg11.dtd">
<!-- Creator: CorelDRAW -->
<svg xmlns="http://www.w3.org/2000/svg" xml:space="preserve" width="136px" height="197px" version="1.1" style="shape-rendering:geometricPrecision; text-rendering:geometricPrecision; image-rendering:optimizeQuality; fill-rule:evenodd; clip-rule:evenodd"
viewBox="0 0 156700 227200"
 xmlns:xlink="http://www.w3.org/1999/xlink"
 xmlns:xodm="http://www.corel.com/coreldraw/odm/2003">
 <defs>
  <style type="text/css">
   <![CDATA[
    .fil0 {fill:#00C8FF;fill-rule:nonzero}
   ]]>
  </style>
 </defs>
 <g id="Слой_x0020_1">
  <metadata id="CorelCorpID_0Corel-Layer"/>
  <path class="fil0" d="M0 219900l156700 -90400 0 800 -156700 90400 0 -800zm0 -196900l23400 -13500 400 600 -23800 13800 0 -900zm0 -10900l4400 -2600 400 600 -4800 2800 0 -800zm0 197000l156700 -90400 0 800 -156700 90400 0 -800zm0 -10900l156700 -90500 0 800 -156700 90500 0 -800zm0 -11000l156700 -90500 0 900 -156700 90400 0 -800zm0 -11000l156700 -90400 0 800 -156700 90500 0 -900zm0 -10900l156700 -90500 0 800 -156700 90500 0 -800zm0 -11000l156700 -90500 0 900 -156700 90400 0 -800zm0 -11000l156700 -90400 0 800 -156700 90500 0 -900zm0 -10900l156700 -90500 0 800 -156700 90500 0 -800zm0 -11000l156700 -90500 0 900 -156700 90400 0 -800zm0 -11000l156700 -90400 0 800 -156700 90500 0 -900zm0 -10900l138700 -80100 1500 0 -140200 80900 0 -800zm0 -11000l134300 -77500 0 800 -134300 77500 0 -800zm0 -11000l134300 -77500 0 800 -134300 77600 0 -900zm0 -10900l114100 -65900 400 600 -114500 66100 0 -800zm0 -11000l79800 -46100 400 600 -80200 46300 0 -800zm0 -11000l60800 -35100 400 600 -61200 35400 0 -900zm0 -10900l41800 -24200 400 600 -42200 24400 0 -800zm140500 192800l16200 -9300 0 800 -15900 9200 -300 -700zm-19000 0l35200 -20300 0 800 -34900 20200 -300 -700zm-19000 0l54200 -31200 0 800 -53800 31100 -400 -700zm-19000 0l73200 -42200 0 800 -72800 42100 -400 -700zm-19000 0l92200 -53200 0 800 -91800 53100 -400 -700zm-19000 0l111200 -64100 0 800 -110800 64000 -400 -700zm-19000 0l130200 -75100 0 800 -129800 75000 -400 -700zm-19000 0l149200 -86100 0 800 -148800 86000 -400 -700z"/>
 </g>
</svg>
