<?xml version="1.0" encoding="UTF-8"?>
<!DOCTYPE svg PUBLIC "-//W3C//DTD SVG 1.1//EN" "http://www.w3.org/Graphics/SVG/1.1/DTD/svg11.dtd">
<!-- Creator: CorelDRAW -->
<svg xmlns="http://www.w3.org/2000/svg" xml:space="preserve" width="208px" height="208px" version="1.1" style="shape-rendering:geometricPrecision; text-rendering:geometricPrecision; image-rendering:optimizeQuality; fill-rule:evenodd; clip-rule:evenodd"
viewBox="0 0 35500 35500"
 xmlns:xlink="http://www.w3.org/1999/xlink"
 xmlns:xodm="http://www.corel.com/coreldraw/odm/2003">
 <defs>
  <style type="text/css">
   <![CDATA[
    .fil0 {fill:#20C4F4}
   ]]>
  </style>
 </defs>
 <g id="Слой_x0020_1">
  <metadata id="CorelCorpID_0Corel-Layer"/>
  <path class="fil0" d="M17800 0c9800,0 17700,8000 17700,17800 0,9800 -7900,17700 -17700,17700 -9800,0 -17800,-7900 -17800,-17700 0,-9800 8000,-17800 17800,-17800zm-8900 18900c-800,-900 -600,-2300 400,-3100 1000,-700 2400,-500 3100,400l3000 4000 7700 -9800c800,-1000 2200,-1200 3200,-400 900,800 1100,2100 300,3100l-9500 12100c-100,100 -200,200 -400,400 -900,700 -2300,500 -3100,-500l-4700 -6200z"/>
 </g>
</svg>
