<?xml version="1.0" encoding="UTF-8"?>
<!DOCTYPE svg PUBLIC "-//W3C//DTD SVG 1.1//EN" "http://www.w3.org/Graphics/SVG/1.1/DTD/svg11.dtd">
<!-- Creator: CorelDRAW -->
<svg xmlns="http://www.w3.org/2000/svg" xml:space="preserve" width="143px" height="117px" version="1.1" style="shape-rendering:geometricPrecision; text-rendering:geometricPrecision; image-rendering:optimizeQuality; fill-rule:evenodd; clip-rule:evenodd"
viewBox="0 0 19800 16200"
 xmlns:xlink="http://www.w3.org/1999/xlink"
 xmlns:xodm="http://www.corel.com/coreldraw/odm/2003">
 <defs>
  <style type="text/css">
   <![CDATA[
    .fil0 {fill:#20C4F4}
   ]]>
  </style>
 </defs>
 <g id="Слой_x0020_1">
  <metadata id="CorelCorpID_0Corel-Layer"/>
  <path class="fil0" d="M16500 500c-2000,2500 -4100,5000 -6100,7400 -200,300 -500,500 -900,400l-9500 -1600c0,200 0,400 100,600l2900 7800c100,300 200,500 400,700l2100 -4600c200,-300 500,-500 800,-300l0 0c300,100 400,500 300,700l-2100 4600c200,0 500,0 700,-100l13500 -5000c200,-100 300,-100 500,-200l-4900 -2300c-200,-100 -400,-400 -200,-700l0 0c100,-300 400,-400 700,-300l5000 2300c100,-300 100,-700 -100,-1000l-2800 -7800c-100,-200 -200,-400 -400,-600zm-1000 -500l-5900 7100c0,0 0,0 -100,0l-1600 -300c0,0 0,0 -100,0l-7400 -1200 15100 -5600z"/>
 </g>
</svg>
